<?xml version="1.0" encoding="utf-8"?>
<!-- Generator: Adobe Illustrator 23.0.1, SVG Export Plug-In . SVG Version: 6.00 Build 0)  -->
<svg version="1.1" id="Layer_1" xmlns="http://www.w3.org/2000/svg" xmlns:xlink="http://www.w3.org/1999/xlink" x="0px" y="0px"
	 viewBox="0 0 3000 3000" style="enable-background:new 0 0 3000 3000;" xml:space="preserve">
<style type="text/css">
	.st0{clip-path:url(#SVGID_2_);fill:#F0EEED;}
	.st1{clip-path:url(#SVGID_2_);fill:#D9D7D6;}
	.st2{clip-path:url(#SVGID_2_);}
	.st3{fill:#3E6A00;}
	.st4{fill:#2E3940;}
	.st5{fill:#FFF2E6;}
	.st6{fill:#61351C;}
	.st7{fill:#709C32;}
	.st8{clip-path:url(#SVGID_2_);fill:#B8B6B5;}
	.st9{fill:#F0EEED;}
	.st10{fill:#E66E61;}
	.st11{fill:#C65C54;}
	.st12{fill:#C68240;}
	.st13{fill:#161E2B;}
	.st14{fill:#E0B8A8;}
	.st15{fill:#BD9B8E;}
	.st16{fill:#B26B3B;}
	.st17{fill:#DBD0C6;}
	.st18{fill:#FFFFFF;}
	.st19{fill:#802A2A;}
	.st20{clip-path:url(#SVGID_2_);fill:#61351C;}
	.st21{fill:#669228;}
	.st22{fill:#51633E;}
</style>
<g>
	<defs>
		<rect id="SVGID_1_" x="2.3" y="53.2" width="2995.5" height="2860"/>
	</defs>
	<clipPath id="SVGID_2_">
		<use xlink:href="#SVGID_1_"  style="overflow:visible;"/>
	</clipPath>
	<rect x="2.3" y="2082.7" class="st0" width="2995.5" height="830.4"/>
	<path class="st1" d="M2813.8,2473.3c-2-99.1-244.1-144.7-380.4-140.5c-148.6,4.6-465.1-20.5-472.1-23
		c-147.2-52.6-307-67.7-461.4-43.3c-77.3,12.2-149.2,36.1-223.2,60.8c-76.3,25.5-150.4,33.6-230.7,34.5c-74.8,0.9-150.5-0.7-224,16
		c-60.2,13.7-134.8,47.9-163.3,106.9c-72.6,150.1,277.2,154.5,353.5,155.5c168,2.1,336.3-3,504.1-10.3
		c164.8-7.3,329.4-22.2,494.4-17.9c167.9,4.4,331.5,38.3,498.5,48.9C2624.3,2668.3,2816.6,2609,2813.8,2473.3z"/>
	<path class="st1" d="M478.3,2198.1c-31.5-4.7-63.5-4-95.1-6.8c-1.4-2.1-3.1-3.8-5.4-5c-39.6-21.5-82.5-19.3-124.3-12.2
		c-22.5,3.8-44.9,9.2-67.4,12.1c-22,2.8-44,2.6-66,2.2c-21.9-0.3-43.8-0.2-65.6,3.5c-18.4,3.1-39.5,7.3-53.5,27
		c-13,18.4-17.3,49-5.3,69.6c12.3,21,33.6,24.6,51.7,25.2c45,1.5,90-9.7,134.9-15.3c44.8-5.6,89.8-7.7,134.5-2.6
		c44.8,5.1,89.1,15.7,134,20.5c23,2.5,46.2,3.4,69.2,1.1c18.4-1.8,39-7.6,47.2-35.1C587.3,2215.4,505.9,2202.3,478.3,2198.1z"/>
	<g class="st2">
		<path class="st3" d="M2233.9,1055.1c-11.6-22.2-37.4-17.3-49.3-1.8c-4.3-2.6-9.8-3.9-16.5-3.2c-126.4,12.6-253,21.9-379.9,27.6
			c-30.6,1.4-61.3,2.5-91.9,3.4c-17.5,0.5-35,1-52.5,1.4c-11.1,0.3-26.8-2.5-37.5,0.3c-0.1-2.6-0.2-5.2-0.2-7.8
			c-0.1-2.4,0-4.7-0.1-7.1c17.6-40.7,10.7-97.1,1.4-137.5c-1.8-7.7-5.8-13.1-10.7-16.6c0.1-1,0.2-2.1,0.3-3.1
			c5.2-46.4,12.1-92.5,20.2-138.5c10.2-10.7,14.4-28.5,2.7-43.2l-6.6-8.3c-5.7-7.1-14.6-9.6-23.5-8.7c2.3-27.4,4.1-54.9,4.8-82.5
			c1.5-59.2-0.7-115.9,11-174.4c12-59.7,21-118.8,23.2-179.7c1.4-38.7-58.7-38.6-60.1,0c-2.1,60-12.2,117.4-23.5,176.2
			c-10.7,55.3-9.6,109-10.4,165c-1.7,118.1-23.8,234.8-26.6,352.8c-1.2,48.8-5.3,109.4,16.3,154.7c20,41.8,62.1,52.8,105,54.4
			c120.2,4.4,241-5.6,360-21.6c31.8-4.3,63.6-8.5,95.7-9.2c29.9-0.7,59.9,3.1,89.7-1.1C2220.9,1140.3,2258.2,1101.8,2233.9,1055.1z"
			/>
		<path class="st4" d="M2247.5,241.4h-36.7v0.1h-589.6v-0.1h-36.7v0.1h0v36.7h0v829.8h36.7v0h626.3v0h0V241.4z M1621.3,278.3h589.6
			v793.1h-589.6V278.3z"/>
		<rect x="1621.3" y="278.3" class="st5" width="589.6" height="793.1"/>
		<g>
			<g>
				<path class="st4" d="M1824.1,480.5c-0.2,0.2-0.4,0.4-0.6,0.7c-0.2,0.2-0.4,0.4-0.7,0.6c-1.1,0.4-2.3,0.9-3.6,1.4
					c-1.3,0.5-2.5,0.9-3.6,1c-2.3-0.1-4.3,0-5.9,0.3c-1.6,0.3-3.1,0.5-4.5,0.7c-5.6-0.2-10.3-0.9-14-2c-3.7-1.1-6.8-3-9.4-5.6
					l-1.4-1.5c-1.1-1.3-2-3-2.9-4.9c-0.9-1.9-1.6-3.9-2.3-6c-0.2-2.1-0.5-4.5-0.8-7.2c-0.3-2.6-0.7-5.2-1-7.6c0.1-2.2,0.2-4.5,0.5-7
					c0.2-2.4,0.7-5,1.3-7.6l0.7-2.4c0.5-1.8,0.9-3.4,1.2-4.8c0.3-1.4,0.7-2.5,1-3.5c0.5-1.3,1.2-2.7,2.3-4.2c1-1.4,2.3-2.8,3.9-4.1
					c1.6-1.3,3.4-2.4,5.6-3.5c2.2-1,4.7-1.8,7.6-2.4l0.8-0.2h2.1c1.3,0,2.4-0.1,3.4-0.2c1-0.1,2.1-0.2,3.4-0.2c0.9,0,1.8,0,2.9,0.1
					c1,0.1,2,0.2,2.8,0.5c2.5,0.7,4.4,1.4,5.7,2c1.3,0.6,2.3,1.3,3,2c0.7,0.7,1.1,1.6,1.2,2.6c0.1,1,0.2,2.2,0.2,3.7
					c0,1.5,0,2.6-0.1,3.5c-0.1,0.8-0.3,1.6-0.8,2.3c-0.3,0.1-0.8,0.3-1.3,0.4c-0.5,0.1-1,0.1-1.3,0.1c-0.6,0-1.1,0-1.4,0
					c-0.4,0-0.7,0.1-1.1,0.1c-0.4,0-0.8,0-1.3-0.1c-0.5,0-1.2-0.1-2.1-0.3c-0.6-1.3-1-2.6-1.3-3.9c-0.2-1.3-0.5-2.2-1-2.6
					c-0.3-0.4-0.8-0.7-1.6-1c-0.8-0.3-1.7-0.6-2.7-0.8c-1-0.2-1.9-0.4-2.8-0.5c-0.9-0.1-1.6-0.2-2.1-0.2c-1.7,0-3,0.2-3.7,0.7
					c-0.7,0.4-1.4,0.7-2,0.7h-0.3l-0.3,0.4c-0.5,0-0.9,0.2-1.2,0.6h-0.6c-1.5,1-2.8,2.5-4,4.4c-1.2,1.9-2.2,4.1-3,6.5
					c-0.8,2.4-1.4,4.9-1.9,7.6c-0.4,2.7-0.7,5.3-0.7,7.8c0,3.6,0.4,7.2,1.1,10.8c0.7,3.6,1.7,6.6,2.9,9.2c0.8,1.1,1.6,2.3,2.3,3.4
					c0.7,1.1,1.6,2,2.7,2.8c1.6,0.7,3.2,1.4,4.7,2c1.5,0.6,3.3,1,5.4,1c1.5,0,2.9,0,4.4,0c1.5,0,2.9-0.3,4.4-0.7l6.1-1.2
					c0.7-0.3,1.3-0.6,1.7-1c0.4-0.4,0.7-0.7,0.8-0.9c1,0.4,1.7,1.3,2,2.6C1823.4,476.7,1823.8,478.4,1824.1,480.5z"/>
				<path class="st4" d="M1877.4,411.6c0.9,0,1.9,0,3,0.1c1.1,0.1,2,0.3,2.9,0.7c0.2,0.3,0.4,0.5,0.5,0.5h0.2c0.6,0,1,0.2,1.2,0.5
					c0,0.4,0,0.9-0.1,1.4c-0.1,0.5-0.2,1.1-0.3,1.6c-0.3,1.4-0.4,3.5-0.4,6.2c0.1,2.7-0.1,5.8-0.6,9.3v0.9c-0.3,2.9-0.6,5.9-0.7,9
					c-0.2,3.1-0.4,6-0.5,8.6c-0.6,4.2-1.3,7.9-2.2,11.1c-0.8,3.2-1.8,6.3-3,9.4c-0.3,0.7-0.7,1.6-1.4,2.7c-0.7,1-1.6,2.1-2.6,3.1
					c-1,1-2.2,2.1-3.5,3.1c-1.3,1-2.7,1.8-4.2,2.5c-3.1,1.9-5.3,2.9-6.8,2.9c-0.3,0-0.5,0-0.8-0.1c-0.3-0.1-0.5-0.2-0.7-0.2
					c-0.9,0.3-1.8,0.4-2.7,0.4c-0.5,0-0.9,0-1.3,0c-0.4,0-0.8-0.1-1.2-0.2h-0.9c-1.5,0-2.9-0.2-4.3-0.5c-1.4-0.4-2.8-1-4.2-2
					c-1.9-1.2-3.5-2.7-4.6-4.6c-1.1-1.9-1.9-4.1-2.5-6.6c-0.6-2.5-1-5.3-1.2-8.3c-0.2-3-0.3-6.3-0.4-9.9c-0.2-5.7-0.4-10.8-0.5-15.4
					c-0.1-4.6-0.3-8.8-0.5-12.6l-0.4-4.3c-0.3-1.1-0.4-2.1-0.5-2.9c-0.1-0.8-0.1-1.4-0.1-2c0-0.3,0.1-0.8,0.3-1.3
					c0.2-0.5,0.5-0.9,1-1.2c0.5-0.3,0.9-0.5,1.2-0.7c0.2-0.2,0.4-0.4,0.5-0.6c0.1-0.1,0.3-0.3,0.4-0.3c0.1-0.1,0.3-0.2,0.7-0.2
					c0.7,0,1.6,0.1,2.5,0.3c0.5,0.1,1,0.1,1.6,0.2c0.6,0.1,1.3,0.2,1.9,0.3c0.6,0.1,1.2,0.3,1.7,0.6c0.5,0.3,0.9,0.7,1,1.2
					c0,0.7,0,1.4-0.2,2.1c-0.1,0.7-0.2,1.7-0.2,2.8l-0.1,7.2c0,1.2,0,2.5-0.1,4c0,1.4-0.1,2.9-0.1,4.4c0,1.5,0,2.9,0,4.3
					c0,1.4-0.1,2.6-0.1,3.7c0,3.3,0.1,6.4,0.2,9.2c0.2,2.8,0.3,5.1,0.4,6.9c0.1,1.5,0.3,3.1,0.4,4.7c0.1,1.6,0.3,3.2,0.7,4.7
					c0.7,3.3,1.7,5.6,3.2,6.8c1.5,1.2,2.9,1.8,4.3,1.8c0.1,0.5,0.8,0.8,2.1,0.8c1,0,2.2-0.3,3.5-0.9c2.3-0.7,4-1.7,5.1-3.2
					c1.1-1.5,2.1-3.2,2.8-5.1c1.1-2.9,2.1-6.3,3.1-10.3c1-4,1.9-9,2.7-15l0.2-3.8c0.1-1,0.2-2.3,0.1-3.8c-0.1-1.5,0-2.7,0.2-3.5
					c0.3-2.5,0.4-4.9,0.2-7.2c-0.2-2.3-0.2-4.2-0.2-5.8c0-1.3,0-2.4-0.1-3.3c-0.1-0.8-0.1-1.6-0.1-2.4c0-0.4,0.2-0.7,0.5-0.9
					c0.3-0.2,0.7-0.4,1.2-0.5c0.4-0.1,0.9-0.2,1.3-0.3C1876.7,411.8,1877.1,411.7,1877.4,411.6z"/>
				<path class="st4" d="M1895.7,471.7c0.3-1.9,0.4-4.5,0.4-7.9c0-3.4,0-7.2,0-11.4v-7.1v-11.7c0-2.3,0-4.6,0.1-6.9
					c0-2.2,0-4.1-0.1-5.6c-0.1-0.9-0.3-1.6-0.5-2.1c-0.2-0.4-0.5-0.8-0.8-1.2c0-0.9,0-1.7,0.1-2.6c0-0.8,0.1-1.6,0.1-2.3
					c1.7-0.8,4.2-1.4,7.7-1.9c3.4-0.5,7.2-0.7,11.3-0.8c4.9-0.1,9,0.4,12.3,1.3c3.3,0.9,5.9,2.2,7.9,4c2,1.7,3.4,3.9,4.2,6.4
					c0.8,2.5,1.3,5.3,1.3,8.5v2.2c-0.1,2.9-0.5,5.8-1,8.8c-0.5,3-1.3,5.4-2.3,7.4c-0.5,1.3-1.3,2.6-2.3,4c-1,1.4-2,2.5-3,3.5
					c-1.7,1.5-3.7,2.7-5.9,3.5c-2.2,0.8-5,1.4-8.3,1.7c-0.7,0.1-1.5,0.2-2.4,0.1c-0.9,0-1.9-0.1-2.9-0.1c-1-0.1-1.9-0.1-2.7-0.2
					c-0.8-0.1-1.4-0.1-1.7-0.1c-0.4,1.2-0.6,2.9-0.6,5.1c0,1.3,0.1,2.7,0.2,4.4c0.1,1.6,0.2,3.2,0.3,4.8c-0.1,0.3-0.1,0.6-0.1,1
					c0,0.5,0,0.9,0.1,1.3c0,0.4,0.1,0.8,0.1,1.3l0.2,2.3v2.4c-0.5,0.4-1.3,0.6-2.6,0.7c-0.5,0.1-1.2,0.3-2,0.6
					c-0.8,0.3-1.3,0.4-1.4,0.4c-0.4,0-0.9-0.1-1.6-0.1c-0.6-0.1-1.2-0.2-1.8-0.3c-0.5-0.1-1-0.2-1.4-0.4c-0.4-0.2-0.6-0.4-0.6-0.6
					c0-0.5-0.1-1.1-0.2-1.8c-0.1-0.6-0.2-1.2-0.2-1.6v-0.1c0.1-0.7,0.3-1.4,0.5-2c0.2-0.6,0.3-1.5,0.3-2.6c0-0.9,0-1.6-0.1-2.1
					c0-0.5-0.1-0.8-0.1-1c0-0.2-0.1-0.4-0.1-0.5C1895.7,472.2,1895.7,472,1895.7,471.7z M1906.9,453.5c1.3-0.1,2.9-0.1,4.8-0.1
					c1.9,0,3.5-0.1,4.9-0.4c1.3,0.1,2.6-0.2,3.7-0.8c1.1-0.6,2-1.3,2.6-2c1.1-0.9,2-1.8,2.5-2.8c0.5-1,1.1-2.3,1.7-3.9l1-3.3
					c0.4-1.3,0.6-2.8,0.7-4.3c0.1-1.5,0.1-3.1,0.1-4.6c0-1.5-0.1-2.9-0.4-4.4c-0.3-1.5-0.7-2.6-1.4-3.4c-0.7-1.9-2-3.4-3.9-4.3
					c-1.8-0.9-4.4-1.3-7.6-1.2c-1.8,0.1-3.3,0.2-4.4,0.3c-1.1,0.1-2,0.4-2.7,0.7c-0.6,0.3-1.1,0.7-1.3,1.3c-0.3,0.6-0.4,1.3-0.4,2.3
					c0,1.1,0,2.4,0.1,3.9c0,1.5,0.1,2.8,0.1,3.9c0.1,1.3,0,2.5-0.1,3.8c-0.1,1.3-0.2,2.5-0.2,3.6l0.4,9.7c0,1.2,0,2.3-0.1,3.3
					C1906.8,451.7,1906.8,452.6,1906.9,453.5z"/>
				<path class="st4" d="M1823.7,539.6c0.6,0.1,1.2,0.7,1.9,1.9c0.7,1.2,1.5,2.5,2.4,4c1.3,2.2,2.2,4.7,2.9,7.4
					c0.6,2.7,1,5.4,1.3,8.1c0.1,3,0.2,6.2,0.1,9.6c-0.1,3.4-0.4,6.4-0.9,9.1c-0.3,1.5-0.7,2.9-1,4.2c-0.3,1.2-0.6,2.4-0.8,3.6
					c-0.7,3.1-1.9,5.8-3.5,8.1c-1.6,2.2-3.5,4.1-5.7,5.6c-2.2,1.5-4.6,2.6-7.2,3.4c-2.6,0.8-5.2,1.3-7.9,1.5
					c-5.8,0.5-9.3,0.3-10.6-0.5c-1.5-0.2-3-0.6-4.4-1.4c-1.4-0.7-2.3-1.2-2.8-1.6l-1.5-1.3c-0.7-0.3-1.3-0.5-1.7-0.8
					c-3.4-2.5-5.9-5.9-7.5-10c-1.6-4.1-2.6-9.3-3.1-15.5c-0.1-1.5-0.2-3.1-0.1-4.9c0-1.8,0.1-3.7,0.2-5.6c0.1-1.9,0.3-3.8,0.6-5.8
					c0.3-1.9,0.6-3.8,1.1-5.5l0.3-3.2c0.1-0.3,0.2-0.7,0.3-1c0.1-0.4,0.3-0.7,0.4-1.1l1.1-2.8c1.9-3.1,3.5-5.2,4.6-6.3
					c0.7-0.8,1.8-1.6,3.2-2.3c1.4-0.7,2.4-1.4,3.1-2c0.4-0.3,0.9-0.5,1.5-0.6c0.6-0.1,1.1-0.1,1.6-0.2c0.5-0.1,0.9-0.2,1.3-0.3
					c0.4-0.1,0.8-0.1,1.4-0.2c0.1-0.1,0.2-0.3,0.3-0.4c0.1-0.1,0.1-0.2,0.2-0.2h0.1c0.7-0.2,1.3-0.4,1.8-0.7
					c0.5-0.1,0.9-0.3,1.3-0.4c0.4-0.2,0.6-0.3,0.7-0.3h0.2c0.3,0,1-0.1,2.1-0.3c1.1-0.2,2.1-0.4,3.1-0.5c0.4-0.1,0.8-0.1,1.3,0
					c0.5,0.1,1,0.1,1.5,0.2c2.5,0.2,4.6,0.5,6.5,0.9c1.8,0.4,3.4,1,4.7,1.7c1.3,0.7,2.4,1.6,3.4,2.7
					C1822.1,536.7,1823,538,1823.7,539.6z M1819.7,583.4c0.9-3.3,1.5-6.5,1.8-9.8c0.3-3.3,0.3-6.2,0.1-8.9c-0.2-3.3-0.6-6.6-1.3-9.7
					c-0.7-3.1-1.6-5.9-2.9-8.3c-1.2-2.4-2.8-4.4-4.7-5.9c-1.9-1.5-4.2-2.4-7-2.6c-1.1-0.1-2.1-0.1-2.8-0.1c-0.7,0-1.2,0-1.6,0
					c-0.2,0-0.4,0.2-0.7,0.6c-0.3,0.4-0.7,0.6-1.2,0.6h-0.8c-0.5,0.1-1.2,0.2-2.1,0.4c-0.9,0.2-1.5,0.6-1.9,1.2
					c-0.3,0.6-0.7,1-1.2,1.3c-0.4,0.3-0.8,0.5-1.3,0.6c-0.4,0.1-0.8,0.2-1.1,0.3c-0.3,0.1-0.6,0.3-0.7,0.6c-0.6,0.6-1,1.1-1.2,1.5
					c-0.2,0.4-0.5,1-1,1.9l-1.8,4.4c-0.1,0.2-0.2,0.5-0.3,0.9c-0.1,0.4-0.1,0.7-0.1,1.2c-0.4,1-0.7,2.3-1,3.9
					c-0.3,1.6-0.5,3.3-0.7,5.2c-0.2,1.8-0.3,3.7-0.3,5.6c0,1.9,0,3.7,0.1,5.3l0.1,1.2c0.2,2.9,0.7,5.6,1.5,8.3
					c0.8,2.7,1.8,4.6,3,5.9l0.1,0.5c0.3,0.7,0.7,1.3,1.1,2c0.4,0.7,0.9,1.3,1.4,1.9c0.7,0.9,1.6,1.6,2.7,2.2
					c1.1,0.6,2.4,1.1,3.7,1.4c1.3,0.3,2.6,0.6,4,0.7c1.4,0.1,2.7,0.2,3.9,0.1c1-0.1,1.8-0.2,2.4-0.4c0.6-0.2,1.2-0.4,2-0.7l1.5-0.4
					c1-0.6,1.8-1.1,2.4-1.6c0.6-0.4,1.1-0.9,1.6-1.5c0.5-0.5,0.7-1,0.7-1.4l0.2-0.7c0.1-0.3,0.3-0.5,0.4-0.8
					c0.2-0.3,0.4-0.6,0.7-0.9c0.9-1,1.6-1.8,1.9-2.5c0.3-0.7,0.4-1.6,0.2-2.8V583.4z"/>
				<path class="st4" d="M1847.2,532.2c3.3-0.2,6.5-0.3,9.6-0.1c3.1,0.1,6.3,0.1,9.5,0.1h5.5c0.5,0,1,0,1.7-0.1c0.7,0,1.4,0,2.1,0
					c0.7,0,1.5,0,2.2,0c0.7,0,1.3-0.1,1.8-0.1h1c0.7,0.5,1,1.1,1.1,2c0.1,0.9,0.1,1.9,0.1,3c0,0.7-0.1,1.6-0.2,2.5
					c-0.2,0.9-0.3,1.6-0.4,2l-1.4,0.1c-0.1,0-0.4,0-0.8,0c-0.4,0-0.8-0.1-1.3-0.1c-0.5,0-0.9-0.1-1.3-0.1c-0.4-0.1-0.7-0.1-1-0.1
					c-0.3,0-0.6-0.1-0.9-0.2c-0.2-0.2-0.7-0.3-1.3-0.3c-1.3-0.1-2.7-0.1-4.2-0.3c-1.5-0.1-3.1-0.1-4.8-0.1c-0.7,0-1.5,0-2.3,0
					c-0.8,0-1.5,0.1-2.2,0.1c-0.3,0-0.8,0-1.3,0c-0.5,0-1.1,0-1.7,0c-0.6,0-1.1,0-1.5,0.1c-0.4,0-0.7,0-0.7,0
					c-0.4,0.3-0.7,0.8-0.9,1.5c-0.2,0.6-0.3,1.3-0.4,2.2c-0.1,0.8-0.1,1.6-0.1,2.4c0,0.8,0,1.4,0,2c0,1.4-0.1,2.9-0.2,4.5
					c-0.1,1.6-0.2,2.9-0.2,4.1c0,0.5,0,1.1,0,1.6c0,0.5,0,1,0.1,1.4l0.4,1.7c0.1,0.5,0.1,0.9,0.1,1.3c0,0.4,0.1,0.7,0.2,1
					c0.2,0,0.6-0.1,1.1-0.2c0.6-0.1,1-0.2,1.2-0.2c0.3,0,0.5,0.1,0.5,0.2c0,0.1,0.5,0.2,1.5,0.2c0.5,0,1.1,0,1.8-0.1
					c0.6,0,1.1,0,1.6,0h3.3c0.9,0,1.8-0.1,2.5-0.3l2,0.5c0.7-0.1,1.3-0.2,1.8-0.4c0.5-0.2,1.3-0.3,2.3-0.3c1.4,0,2.7,0.2,4,0.7
					c0.1,0.5,0.1,1,0.1,1.5c0,0.5,0.1,1.1,0.3,1.6c-0.1,0.7-0.2,1.6-0.4,2.6c-0.2,1-0.4,1.8-0.6,2.4c-0.9,0-1.8,0-2.7,0
					c-0.9,0-1.9,0-2.9-0.1c-1.6,0.1-3.4,0.1-5.3,0.1c-1.9,0-4,0.1-6.4,0.2c-0.7-0.1-1.5-0.1-2.3-0.2c-0.8,0-1.5,0-2,0
					c-0.2,0-0.4-0.1-0.7-0.2c-0.3-0.1-0.5-0.2-0.6-0.2c-0.3,0.4-0.5,0.9-0.6,1.4c-0.1,0.5-0.1,0.9-0.1,1.3c0,0.3,0.1,0.5,0.2,0.7
					c0.1,0.2,0.2,0.5,0.3,0.8c-0.3,1.7-0.5,3.4-0.6,5.1c-0.1,1.7-0.2,3.5-0.2,5.4c0,1.3,0,2.7,0.1,4.4c0.1,1.7,0.1,3.1,0.1,4.3
					c0,1.3,0,2.4,0.1,3.1c0,0.7,0.1,1.4,0.1,1.9c0,0.5,0.1,1,0.1,1.4c0,0.4,0,1-0.1,1.7c-0.1,0.5-0.3,0.9-0.8,1.2
					c-0.5,0.3-1,0.4-1.7,0.5c-0.7,0.1-1.3,0.1-2,0c-0.7,0-1.2,0-1.7,0c-0.1,0-0.4,0-0.8-0.1c-0.4-0.1-0.8-0.2-1-0.4
					c-0.4,0.1-0.7,0.3-1,0.4c-0.2,0.2-0.5,0.4-0.8,0.6c-0.3-0.3-0.7-0.6-1.1-1c-0.4-0.4-0.7-0.9-0.7-1.4c0-0.3,0.1-0.7,0.2-1.4
					l0.1-1.2v-1.5c0-0.3,0.1-0.7,0.2-1.3c0.1-0.5,0.2-1,0.2-1.4c0.1-1.9,0.3-4.1,0.4-6.6c0.1-2.4,0.1-4.7-0.1-6.8
					c-0.1-1.3-0.1-2.7,0-4.1c0-1.4,0-2.7,0-4.1c0.3-3.8,0.5-7.8,0.6-12c0-4.2-0.1-8.2-0.4-12.2c0.2-1.9,0.3-3.9,0.4-6
					c0.1-2.1-0.3-4.3-1-6.7c-0.1-0.7-0.1-1.6,0-2.5c0.1-0.9,0.3-1.7,0.4-2.5c0.3-0.1,0.6-0.2,0.7-0.3c0.1-0.1,0.4-0.1,0.8-0.1
					l0.9,0.7c0.1,0,0.2-0.1,0.3-0.4c0.2-0.3,0.3-0.5,0.4-0.5c0.1,0,0.3,0,0.4-0.2c0.1-0.1,0.3-0.1,0.6-0.1
					C1846.4,532,1846.7,532,1847.2,532.2z"/>
				<path class="st4" d="M1824.1,720.8c-0.2,0.2-0.4,0.4-0.6,0.7c-0.2,0.2-0.4,0.4-0.7,0.6c-1.1,0.4-2.3,0.9-3.6,1.4
					c-1.3,0.5-2.5,0.9-3.6,1c-2.3-0.1-4.3,0-5.9,0.3c-1.6,0.3-3.1,0.5-4.5,0.7c-5.6-0.2-10.3-0.9-14-2c-3.7-1.1-6.8-3-9.4-5.6
					l-1.4-1.5c-1.1-1.3-2-3-2.9-4.9c-0.9-1.9-1.6-3.9-2.3-6c-0.2-2.1-0.5-4.5-0.8-7.2c-0.3-2.6-0.7-5.2-1-7.6c0.1-2.2,0.2-4.5,0.5-7
					c0.2-2.4,0.7-5,1.3-7.6l0.7-2.4c0.5-1.8,0.9-3.4,1.2-4.8c0.3-1.4,0.7-2.5,1-3.5c0.5-1.3,1.2-2.7,2.3-4.2c1-1.4,2.3-2.8,3.9-4.1
					c1.6-1.3,3.4-2.4,5.6-3.5c2.2-1,4.7-1.8,7.6-2.4l0.8-0.2h2.1c1.3,0,2.4-0.1,3.4-0.2c1-0.1,2.1-0.2,3.4-0.2c0.9,0,1.8,0,2.9,0.1
					c1,0.1,2,0.2,2.8,0.5c2.5,0.7,4.4,1.4,5.7,2c1.3,0.6,2.3,1.3,3,2c0.7,0.7,1.1,1.6,1.2,2.6c0.1,1,0.2,2.2,0.2,3.7
					c0,1.5,0,2.6-0.1,3.5c-0.1,0.8-0.3,1.6-0.8,2.3c-0.3,0.1-0.8,0.3-1.3,0.4c-0.5,0.1-1,0.1-1.3,0.1c-0.6,0-1.1,0-1.4,0
					c-0.4,0-0.7,0.1-1.1,0.1c-0.4,0-0.8,0-1.3-0.1c-0.5,0-1.2-0.1-2.1-0.3c-0.6-1.3-1-2.6-1.3-3.9c-0.2-1.3-0.5-2.2-1-2.6
					c-0.3-0.4-0.8-0.7-1.6-1c-0.8-0.3-1.7-0.6-2.7-0.8c-1-0.2-1.9-0.4-2.8-0.5c-0.9-0.1-1.6-0.2-2.1-0.2c-1.7,0-3,0.2-3.7,0.7
					c-0.7,0.4-1.4,0.7-2,0.7h-0.3l-0.3,0.4c-0.5,0-0.9,0.2-1.2,0.6h-0.6c-1.5,1-2.8,2.5-4,4.4c-1.2,1.9-2.2,4.1-3,6.5
					c-0.8,2.4-1.4,4.9-1.9,7.6c-0.4,2.7-0.7,5.3-0.7,7.8c0,3.6,0.4,7.2,1.1,10.8c0.7,3.6,1.7,6.6,2.9,9.2c0.8,1.1,1.6,2.3,2.3,3.4
					c0.7,1.1,1.6,2,2.7,2.8c1.6,0.7,3.2,1.4,4.7,2c1.5,0.6,3.3,1,5.4,1c1.5,0,2.9,0,4.4,0c1.5,0,2.9-0.3,4.4-0.7l6.1-1.2
					c0.7-0.3,1.3-0.6,1.7-1c0.4-0.4,0.7-0.7,0.8-0.9c1,0.4,1.7,1.3,2,2.6C1823.4,716.9,1823.8,718.7,1824.1,720.8z"/>
				<path class="st4" d="M1879.8,659.7c0.6,0.1,1.2,0.7,1.9,1.9c0.7,1.2,1.5,2.5,2.4,4c1.3,2.2,2.2,4.7,2.9,7.4
					c0.6,2.7,1,5.4,1.3,8.1c0.1,3,0.2,6.2,0.1,9.6c-0.1,3.4-0.4,6.4-0.9,9.1c-0.3,1.5-0.7,2.9-1,4.2c-0.3,1.2-0.6,2.4-0.8,3.6
					c-0.7,3.1-1.9,5.8-3.5,8.1c-1.6,2.2-3.5,4.1-5.7,5.6c-2.2,1.5-4.6,2.6-7.2,3.4c-2.6,0.8-5.2,1.3-7.9,1.5
					c-5.8,0.5-9.3,0.3-10.6-0.5c-1.5-0.2-3-0.6-4.4-1.4c-1.4-0.7-2.3-1.2-2.8-1.6l-1.5-1.3c-0.7-0.3-1.3-0.5-1.7-0.8
					c-3.4-2.5-5.9-5.9-7.5-10c-1.6-4.1-2.6-9.3-3.1-15.5c-0.1-1.5-0.2-3.1-0.2-4.9c0-1.8,0.1-3.7,0.2-5.6c0.1-1.9,0.3-3.8,0.6-5.8
					c0.3-1.9,0.6-3.8,1.1-5.5l0.3-3.2c0.1-0.3,0.2-0.7,0.3-1c0.1-0.4,0.3-0.7,0.4-1.1l1.1-2.8c1.9-3.1,3.5-5.2,4.6-6.3
					c0.7-0.8,1.8-1.6,3.2-2.3c1.4-0.7,2.4-1.4,3.1-2c0.4-0.3,0.9-0.5,1.5-0.6c0.6-0.1,1.1-0.1,1.6-0.2c0.5-0.1,0.9-0.2,1.3-0.3
					c0.4-0.1,0.8-0.1,1.4-0.2c0.1-0.1,0.2-0.3,0.3-0.4c0.1-0.1,0.1-0.2,0.2-0.2h0.1c0.7-0.2,1.3-0.4,1.8-0.7
					c0.5-0.1,0.9-0.3,1.3-0.4c0.4-0.2,0.6-0.3,0.7-0.3h0.2c0.3,0,1-0.1,2.1-0.3c1.1-0.2,2.1-0.4,3.1-0.5c0.4-0.1,0.8-0.1,1.3,0
					c0.5,0.1,1,0.1,1.5,0.2c2.5,0.2,4.6,0.5,6.5,0.9c1.8,0.4,3.4,1,4.7,1.7c1.3,0.7,2.4,1.6,3.4,2.7
					C1878.2,656.9,1879,658.2,1879.8,659.7z M1875.8,703.6c0.9-3.3,1.5-6.5,1.8-9.8c0.3-3.3,0.3-6.2,0.1-8.9
					c-0.2-3.3-0.6-6.6-1.3-9.7c-0.7-3.1-1.6-5.9-2.9-8.3c-1.2-2.4-2.8-4.4-4.7-5.9c-1.9-1.5-4.2-2.4-7-2.6c-1.1-0.1-2.1-0.1-2.8-0.1
					c-0.7,0-1.2,0-1.6,0c-0.2,0-0.4,0.2-0.7,0.6c-0.3,0.4-0.7,0.6-1.2,0.6h-0.8c-0.5,0.1-1.2,0.2-2.1,0.4c-0.9,0.2-1.5,0.6-1.9,1.2
					c-0.3,0.6-0.7,1-1.2,1.3c-0.4,0.3-0.8,0.5-1.3,0.6c-0.4,0.1-0.8,0.2-1.1,0.3c-0.3,0.1-0.6,0.3-0.7,0.6c-0.6,0.6-1,1.1-1.2,1.5
					c-0.2,0.4-0.5,1-1,1.9l-1.8,4.4c-0.1,0.2-0.2,0.5-0.3,0.9c-0.1,0.4-0.1,0.7-0.1,1.2c-0.4,1-0.7,2.3-1,3.9
					c-0.3,1.6-0.5,3.3-0.7,5.2c-0.2,1.8-0.3,3.7-0.3,5.6c0,1.9,0,3.7,0.1,5.3l0.1,1.2c0.2,2.9,0.7,5.6,1.5,8.3
					c0.8,2.7,1.8,4.6,3,5.9l0.1,0.5c0.3,0.7,0.7,1.3,1.1,2c0.4,0.7,0.9,1.3,1.4,1.9c0.7,0.9,1.6,1.6,2.7,2.2
					c1.1,0.6,2.4,1.1,3.7,1.4c1.3,0.3,2.6,0.6,4,0.7c1.4,0.1,2.7,0.2,3.9,0.1c1-0.1,1.8-0.2,2.4-0.4c0.6-0.2,1.2-0.4,2-0.7l1.5-0.4
					c1-0.6,1.8-1.1,2.4-1.6c0.6-0.4,1.1-0.9,1.6-1.5c0.5-0.5,0.7-1,0.7-1.4l0.2-0.7c0.1-0.3,0.3-0.5,0.4-0.8
					c0.2-0.3,0.4-0.6,0.7-0.9c0.9-1,1.6-1.8,1.9-2.5c0.3-0.7,0.4-1.6,0.2-2.8V703.6z"/>
				<path class="st4" d="M1903.3,652.3c3.3-0.2,6.5-0.3,9.6-0.1c3.1,0.1,6.3,0.1,9.5,0.1h5.5c0.5,0,1,0,1.7-0.1c0.7,0,1.4,0,2.1,0
					c0.7,0,1.5,0,2.2,0c0.7,0,1.3-0.1,1.8-0.1h1c0.7,0.5,1,1.1,1.1,2c0.1,0.9,0.1,1.9,0.1,3c0,0.7-0.1,1.6-0.2,2.5
					c-0.2,0.9-0.3,1.6-0.4,2l-1.4,0.1c-0.1,0-0.4,0-0.8,0c-0.4,0-0.8-0.1-1.3-0.1c-0.5,0-0.9-0.1-1.3-0.1c-0.4-0.1-0.7-0.1-1-0.1
					c-0.3,0-0.6-0.1-0.9-0.2c-0.2-0.2-0.7-0.3-1.3-0.3c-1.3-0.1-2.7-0.1-4.2-0.3c-1.5-0.1-3.1-0.1-4.8-0.1c-0.7,0-1.5,0-2.3,0
					c-0.8,0-1.5,0.1-2.2,0.1c-0.3,0-0.8,0-1.3,0c-0.5,0-1.1,0-1.7,0c-0.6,0-1.1,0-1.5,0.1c-0.4,0-0.7,0-0.7,0
					c-0.4,0.3-0.7,0.8-0.9,1.5c-0.2,0.6-0.3,1.3-0.4,2.2c-0.1,0.8-0.2,1.6-0.2,2.4c0,0.8,0,1.4,0,2c0,1.4-0.1,2.9-0.1,4.5
					c-0.1,1.6-0.2,2.9-0.2,4.1c0,0.5,0,1.1,0,1.6c0,0.5,0,1,0.1,1.4l0.4,1.7c0.1,0.5,0.1,0.9,0.1,1.3c0,0.4,0.1,0.7,0.2,1
					c0.2,0,0.6-0.1,1.1-0.2c0.6-0.1,1-0.2,1.2-0.2c0.3,0,0.5,0.1,0.5,0.2c0,0.1,0.5,0.2,1.5,0.2c0.5,0,1.1,0,1.8-0.1
					c0.6,0,1.1,0,1.6,0h3.3c0.9,0,1.8-0.1,2.5-0.3l2,0.5c0.7-0.1,1.3-0.2,1.8-0.4c0.5-0.2,1.3-0.3,2.3-0.3c1.4,0,2.7,0.2,4,0.7
					c0.1,0.5,0.1,1,0.1,1.5c0,0.5,0.1,1.1,0.3,1.6c-0.1,0.7-0.2,1.6-0.4,2.6c-0.2,1-0.4,1.8-0.6,2.4c-0.9,0-1.8,0-2.7,0
					c-0.9,0-1.9,0-2.9-0.1c-1.6,0.1-3.4,0.1-5.3,0.1c-1.9,0-4,0.1-6.4,0.2c-0.7-0.1-1.5-0.1-2.3-0.2c-0.8,0-1.5,0-2,0
					c-0.2,0-0.4-0.1-0.7-0.2c-0.3-0.1-0.5-0.2-0.6-0.2c-0.3,0.4-0.5,0.9-0.6,1.4c-0.1,0.5-0.1,0.9-0.1,1.3c0,0.3,0.1,0.5,0.2,0.7
					c0.1,0.2,0.2,0.5,0.3,0.8c-0.3,1.7-0.5,3.4-0.6,5.1c-0.1,1.7-0.2,3.5-0.2,5.4c0,1.3,0,2.7,0.1,4.4c0.1,1.7,0.1,3.1,0.1,4.3
					c0,1.3,0,2.4,0.1,3.1c0,0.7,0.1,1.4,0.1,1.9c0,0.5,0.1,1,0.1,1.4c0,0.4,0,1-0.1,1.7c-0.1,0.5-0.3,0.9-0.8,1.2
					c-0.5,0.3-1,0.4-1.7,0.5c-0.7,0.1-1.3,0.1-2,0c-0.7,0-1.2,0-1.7,0c-0.1,0-0.4,0-0.8-0.1c-0.4-0.1-0.8-0.2-1-0.4
					c-0.4,0.1-0.7,0.3-1,0.4c-0.2,0.2-0.5,0.4-0.8,0.6c-0.3-0.3-0.7-0.6-1.1-1c-0.4-0.4-0.7-0.9-0.7-1.4c0-0.3,0.1-0.7,0.2-1.4
					l0.1-1.2v-1.5c0-0.3,0.1-0.7,0.2-1.3c0.1-0.5,0.2-1,0.2-1.4c0.1-1.9,0.3-4.1,0.4-6.6c0.1-2.4,0.1-4.7-0.1-6.8
					c-0.1-1.3-0.1-2.7,0-4.1c0-1.4,0-2.7,0-4.1c0.3-3.8,0.5-7.8,0.6-12c0-4.2-0.1-8.2-0.4-12.2c0.2-1.9,0.3-3.9,0.4-6
					c0.1-2.1-0.3-4.3-1-6.7c-0.1-0.7-0.1-1.6,0-2.5c0.1-0.9,0.3-1.7,0.4-2.5c0.3-0.1,0.6-0.2,0.7-0.3c0.1-0.1,0.4-0.1,0.8-0.1
					l0.9,0.7c0.1,0,0.2-0.1,0.3-0.4c0.2-0.3,0.3-0.5,0.4-0.5c0.1,0,0.3,0,0.4-0.2c0.1-0.1,0.3-0.1,0.6-0.1
					C1902.4,652.1,1902.8,652.2,1903.3,652.3z"/>
				<path class="st4" d="M1952.9,652.3c3.3-0.2,6.5-0.3,9.6-0.1c3.1,0.1,6.3,0.1,9.5,0.1h5.5c0.5,0,1,0,1.7-0.1c0.7,0,1.4,0,2.1,0
					c0.7,0,1.5,0,2.2,0c0.7,0,1.3-0.1,1.8-0.1h1c0.7,0.5,1,1.1,1.1,2c0.1,0.9,0.1,1.9,0.1,3c0,0.7-0.1,1.6-0.2,2.5
					c-0.2,0.9-0.3,1.6-0.4,2l-1.4,0.1c-0.1,0-0.4,0-0.8,0c-0.4,0-0.8-0.1-1.3-0.1c-0.5,0-0.9-0.1-1.3-0.1c-0.4-0.1-0.8-0.1-1-0.1
					c-0.3,0-0.6-0.1-0.9-0.2c-0.2-0.2-0.7-0.3-1.3-0.3c-1.3-0.1-2.7-0.1-4.2-0.3c-1.5-0.1-3.1-0.1-4.8-0.1c-0.7,0-1.5,0-2.3,0
					c-0.8,0-1.5,0.1-2.2,0.1c-0.3,0-0.8,0-1.3,0c-0.5,0-1.1,0-1.7,0c-0.6,0-1.1,0-1.5,0.1c-0.4,0-0.7,0-0.7,0
					c-0.4,0.3-0.7,0.8-0.9,1.5c-0.2,0.6-0.3,1.3-0.4,2.2c-0.1,0.8-0.2,1.6-0.2,2.4c0,0.8,0,1.4,0,2c0,1.4-0.1,2.9-0.1,4.5
					c-0.1,1.6-0.2,2.9-0.2,4.1c0,0.5,0,1.1,0,1.6c0,0.5,0,1,0.1,1.4l0.4,1.7c0.1,0.5,0.1,0.9,0.1,1.3c0,0.4,0.1,0.7,0.2,1
					c0.2,0,0.6-0.1,1.1-0.2c0.6-0.1,1-0.2,1.2-0.2c0.3,0,0.5,0.1,0.5,0.2c0,0.1,0.5,0.2,1.5,0.2c0.5,0,1.1,0,1.8-0.1
					c0.6,0,1.1,0,1.6,0h3.3c0.9,0,1.8-0.1,2.5-0.3l2,0.5c0.7-0.1,1.3-0.2,1.8-0.4c0.5-0.2,1.3-0.3,2.3-0.3c1.4,0,2.7,0.2,4,0.7
					c0.1,0.5,0.1,1,0.1,1.5c0,0.5,0.1,1.1,0.3,1.6c-0.1,0.7-0.2,1.6-0.4,2.6c-0.2,1-0.4,1.8-0.6,2.4c-0.9,0-1.8,0-2.7,0
					c-0.9,0-1.9,0-2.9-0.1c-1.6,0.1-3.4,0.1-5.3,0.1c-1.9,0-4,0.1-6.4,0.2c-0.7-0.1-1.5-0.1-2.3-0.2c-0.8,0-1.5,0-2,0
					c-0.2,0-0.4-0.1-0.7-0.2c-0.3-0.1-0.5-0.2-0.6-0.2c-0.3,0.4-0.5,0.9-0.6,1.4c-0.1,0.5-0.1,0.9-0.1,1.3c0,0.3,0.1,0.5,0.2,0.7
					c0.1,0.2,0.2,0.5,0.3,0.8c-0.3,1.7-0.5,3.4-0.6,5.1c-0.1,1.7-0.2,3.5-0.2,5.4c0,1.3,0,2.7,0.1,4.4c0.1,1.7,0.1,3.1,0.1,4.3
					c0,1.3,0,2.4,0.1,3.1c0,0.7,0.1,1.4,0.1,1.9c0,0.5,0.1,1,0.1,1.4c0,0.4,0,1-0.1,1.7c-0.1,0.5-0.3,0.9-0.8,1.2
					c-0.5,0.3-1,0.4-1.7,0.5c-0.7,0.1-1.3,0.1-2,0c-0.7,0-1.2,0-1.7,0c-0.1,0-0.4,0-0.8-0.1c-0.4-0.1-0.8-0.2-1-0.4
					c-0.4,0.1-0.7,0.3-1,0.4c-0.2,0.2-0.5,0.4-0.8,0.6c-0.3-0.3-0.7-0.6-1.1-1c-0.4-0.4-0.7-0.9-0.7-1.4c0-0.3,0.1-0.7,0.2-1.4
					l0.1-1.2v-1.5c0-0.3,0.1-0.7,0.2-1.3c0.1-0.5,0.2-1,0.2-1.4c0.1-1.9,0.3-4.1,0.4-6.6c0.1-2.4,0.1-4.7-0.1-6.8
					c-0.1-1.3-0.1-2.7,0-4.1c0-1.4,0-2.7,0-4.1c0.3-3.8,0.5-7.8,0.6-12c0-4.2-0.1-8.2-0.4-12.2c0.2-1.9,0.3-3.9,0.4-6
					c0.1-2.1-0.3-4.3-1-6.7c-0.1-0.7-0.1-1.6,0-2.5c0.1-0.9,0.3-1.7,0.4-2.5c0.3-0.1,0.6-0.2,0.7-0.3c0.1-0.1,0.4-0.1,0.8-0.1
					l0.9,0.7c0.1,0,0.2-0.1,0.3-0.4c0.2-0.3,0.3-0.5,0.4-0.5c0.1,0,0.3,0,0.4-0.2c0.1-0.1,0.3-0.1,0.6-0.1
					C1952,652.1,1952.3,652.2,1952.9,652.3z"/>
				<path class="st4" d="M2001.5,652.8c0.7-0.1,1.5-0.1,2.4-0.1c0.9,0,1.8,0,2.7,0h4.2c1.9,0,3.7,0,5.6,0c1.9,0,3.7,0,5.6,0
					c0.7,0,1.4,0,2,0c0.6,0,1.3,0,2,0c0.7,0,1.7,0,2.9-0.2c1.2-0.1,2.3-0.1,3.4-0.1c1,0,1.8,0.1,2.4,0.1c0.6,0.1,1,0.3,1.1,0.7
					c0.2,1.1,0.3,2.6,0.3,4.4c-0.1,1-0.3,1.8-0.5,2.3c-0.2,0.5-0.6,1-1.1,1.4c-0.4,0-1.3,0-2.6,0c-1.3,0-2.4,0-3.1-0.1
					c-1.4-0.3-2.7-0.5-3.9-0.6c-1.2-0.1-2.9-0.2-5.2-0.2c-0.7,0-1.5,0-2.2,0c-0.7,0-1.5,0.1-2.2,0.1c-0.4,0-0.9,0-1.4,0
					c-0.5,0-1.1,0-1.6,0c-0.5,0-1,0.1-1.4,0.1c-0.4,0-0.6,0.1-0.7,0.1l-1.1,0.3c-0.1,0.6-0.2,1.5-0.3,2.6c-0.1,1.1-0.3,2.3-0.4,3.6
					c-0.1,1.3-0.2,2.5-0.3,3.6c-0.1,1.1-0.2,2-0.2,2.6c0,1.4,0.1,2.9,0.3,4.4c0.2,1.5,0.4,3.1,0.5,4.7c0.2,0.5,0.7,0.7,1.6,0.7h0.4
					c0.3,0,0.4,0.1,0.5,0.3c0.1,0.2,0.4,0.2,1,0.2c0.5,0,1.3,0,2.2-0.1c0.9-0.1,1.6-0.2,2.1-0.2c0.3,0,0.6,0,0.9,0.1
					c0.3,0,0.5,0,0.7,0c0.6,0,1.2,0,1.8-0.1c0.6-0.1,1.2-0.2,1.7-0.3l1.3,0.1c0.1,0,0.3-0.1,0.6-0.2c1.1-0.1,2.3-0.1,3.5-0.1
					c1.2,0,2.4,0,3.6,0c0.1,0.3,0.2,0.7,0.3,1.3c0.1,0.6,0.2,1.3,0.2,2.2c0,0.9,0,1.6,0,2.3c0,0.7,0,1.3-0.1,1.9
					c-1.3,0.8-3.1,1.2-5.5,1.2c-0.8,0-1.8-0.1-2.9-0.3c-1.1-0.2-2.3-0.3-3.4-0.3h-0.7l-3.2,0.1c-0.1,0-0.2,0-0.3,0
					c-0.1,0-0.2,0.1-0.3,0.1c-0.5,0-1.2-0.1-2.1-0.2c-0.9-0.1-1.5-0.2-2-0.2l-1.3,0.1c-0.3,0.3-0.5,0.5-0.6,0.7
					c-0.1,0.2-0.3,0.4-0.4,0.6c-0.1,0.2-0.3,0.6-0.4,1.2c-0.1,0.6-0.2,1.3-0.2,2c-0.1,0.7-0.1,1.5-0.2,2.4c0,0.9-0.1,1.6-0.1,2.3
					c0,0.9,0,1.8,0.1,2.9c0,1,0.1,2.1,0.2,3.3l0.3,7.2c0.1,0.5,0.1,1,0.2,1.3c0,0.3,0,0.6,0,0.7c0.5,0.1,0.9,0.1,1.4,0.2
					c0.5,0.1,0.9,0.1,1.4,0.1c0.4,0,0.9,0,1.5,0c0.6,0,1.3-0.1,2-0.2l4-0.1c0.3,0,0.6,0,0.9,0c0.3,0,0.6,0,1,0c1.3,0,2.8,0,4.4-0.1
					c1.6-0.1,3.2-0.2,5-0.3l3.8-0.5c0.5-0.3,1.1-0.4,1.7-0.4c0.4,0,0.7,0.4,0.7,1.3c0.1,0.9,0.1,1.7,0.1,2.4c0,0.3,0,0.5,0,0.7
					c0,0.2-0.1,0.5-0.1,0.9c0.1,0.3,0.1,0.7,0.1,1c0,0.3,0,0.7,0,1c0,0.5-0.1,0.9-0.2,1.3c-0.1,0.4-0.3,0.7-0.4,1
					c-0.7,0.1-1.6,0.2-2.6,0.2c-1,0-2.3,0-3.8,0c-1.5,0-3.2,0-5-0.1c-1.8-0.1-3.6-0.2-5.3-0.2h-1.2c-1.9,0-3.9,0-5.9,0.2
					c-2,0.1-4,0.1-5.9,0.1h-2c-0.9-0.2-1.5-0.3-1.9-0.3c-0.4,0-1.1-0.3-2-0.8c-0.1,0-0.4,0.1-0.8,0.3c-0.4,0.2-0.7,0.4-0.8,0.5h-0.2
					c-0.5,0-0.8-0.3-0.9-1c-0.1-0.6-0.2-1.2-0.4-1.6c0-0.1,0.1-0.3,0.2-0.6c-0.1,0-0.1,0-0.1-0.1v-0.7v-1.3c0.1-3,0.2-6,0.3-8.9
					c0.1-2.9,0.2-5.9,0.2-9l-0.1-10.1c-0.1-1.3-0.1-2.5-0.1-3.8c0-1.2,0.1-2.5,0.1-3.8v-2.4c-0.1-2.3-0.1-4.5-0.1-6.7
					c0-2.2,0.1-4.4,0.1-6.7c0-1.6,0-3.1-0.1-4.6c0-1.5-0.1-2.9-0.1-4.2c-0.2-1.5-0.3-2.6-0.3-3.5c0-0.2,0-0.4,0-0.6
					c0-0.2,0.1-0.3,0.2-0.4c0.1-0.1,0.4-0.3,0.7-0.5c0.3-0.2,0.8-0.5,1.5-0.8c0.1-0.1,0.1-0.1,0.1-0.2l0.5,0.1c0.1,0,0.3,0,0.5-0.1
					c0.2-0.1,0.4-0.1,0.7-0.1S2001.3,652.8,2001.5,652.8z"/>
				<path class="st4" d="M2050,652.8c0.7-0.1,1.5-0.1,2.4-0.1c0.9,0,1.8,0,2.7,0h4.2c1.9,0,3.7,0,5.6,0c1.9,0,3.7,0,5.6,0
					c0.7,0,1.4,0,2,0c0.6,0,1.3,0,2,0c0.7,0,1.7,0,2.9-0.2c1.2-0.1,2.3-0.1,3.4-0.1c1,0,1.8,0.1,2.4,0.1c0.6,0.1,1,0.3,1.1,0.7
					c0.2,1.1,0.3,2.6,0.3,4.4c-0.1,1-0.3,1.8-0.5,2.3c-0.2,0.5-0.6,1-1.1,1.4c-0.4,0-1.3,0-2.6,0c-1.3,0-2.4,0-3.1-0.1
					c-1.4-0.3-2.7-0.5-3.9-0.6c-1.2-0.1-2.9-0.2-5.2-0.2c-0.7,0-1.5,0-2.2,0c-0.7,0-1.5,0.1-2.2,0.1c-0.4,0-0.9,0-1.4,0
					c-0.5,0-1.1,0-1.6,0c-0.5,0-1,0.1-1.4,0.1c-0.4,0-0.6,0.1-0.7,0.1l-1.1,0.3c-0.1,0.6-0.2,1.5-0.3,2.6c-0.1,1.1-0.3,2.3-0.4,3.6
					c-0.1,1.3-0.2,2.5-0.3,3.6c-0.1,1.1-0.1,2-0.1,2.6c0,1.4,0.1,2.9,0.3,4.4c0.2,1.5,0.4,3.1,0.5,4.7c0.2,0.5,0.7,0.7,1.6,0.7h0.4
					c0.3,0,0.4,0.1,0.5,0.3c0.1,0.2,0.4,0.2,1,0.2s1.3,0,2.2-0.1c0.9-0.1,1.6-0.2,2.1-0.2c0.3,0,0.6,0,0.9,0.1c0.3,0,0.5,0,0.7,0
					c0.6,0,1.2,0,1.8-0.1c0.6-0.1,1.2-0.2,1.7-0.3l1.3,0.1c0.1,0,0.3-0.1,0.6-0.2c1.1-0.1,2.3-0.1,3.5-0.1c1.2,0,2.4,0,3.6,0
					c0.1,0.3,0.1,0.7,0.3,1.3c0.1,0.6,0.1,1.3,0.1,2.2c0,0.9,0,1.6,0,2.3c0,0.7,0,1.3-0.1,1.9c-1.3,0.8-3.1,1.2-5.5,1.2
					c-0.8,0-1.8-0.1-2.9-0.3c-1.1-0.2-2.3-0.3-3.4-0.3h-0.7l-3.2,0.1c-0.1,0-0.2,0-0.3,0c-0.1,0-0.2,0.1-0.3,0.1
					c-0.5,0-1.2-0.1-2.1-0.2c-0.9-0.1-1.5-0.2-2-0.2l-1.3,0.1c-0.3,0.3-0.5,0.5-0.6,0.7c-0.1,0.2-0.3,0.4-0.4,0.6
					c-0.1,0.2-0.3,0.6-0.4,1.2c-0.1,0.6-0.2,1.3-0.2,2c-0.1,0.7-0.1,1.5-0.1,2.4c0,0.9-0.1,1.6-0.1,2.3c0,0.9,0,1.8,0.1,2.9
					c0,1,0.1,2.1,0.1,3.3l0.3,7.2c0.1,0.5,0.1,1,0.1,1.3c0,0.3,0,0.6,0,0.7c0.5,0.1,0.9,0.1,1.4,0.2c0.5,0.1,0.9,0.1,1.4,0.1
					c0.4,0,0.9,0,1.5,0c0.6,0,1.3-0.1,2-0.2l4-0.1c0.3,0,0.6,0,0.9,0c0.3,0,0.6,0,1,0c1.3,0,2.8,0,4.4-0.1c1.6-0.1,3.2-0.2,5-0.3
					l3.8-0.5c0.5-0.3,1.1-0.4,1.7-0.4c0.4,0,0.7,0.4,0.7,1.3c0.1,0.9,0.2,1.7,0.2,2.4c0,0.3,0,0.5,0,0.7c0,0.2-0.1,0.5-0.1,0.9
					c0.1,0.3,0.1,0.7,0.1,1c0,0.3,0,0.7,0,1c0,0.5-0.1,0.9-0.2,1.3c-0.1,0.4-0.3,0.7-0.4,1c-0.7,0.1-1.6,0.2-2.6,0.2s-2.3,0-3.8,0
					c-1.5,0-3.2,0-5-0.1c-1.8-0.1-3.6-0.2-5.3-0.2h-1.2c-1.9,0-3.9,0-5.9,0.2c-2,0.1-4,0.1-5.9,0.1h-2c-0.9-0.2-1.5-0.3-1.9-0.3
					c-0.4,0-1.1-0.3-2-0.8c-0.1,0-0.4,0.1-0.8,0.3c-0.4,0.2-0.7,0.4-0.8,0.5h-0.2c-0.5,0-0.8-0.3-0.9-1c-0.1-0.6-0.2-1.2-0.4-1.6
					c0-0.1,0.1-0.3,0.2-0.6c-0.1,0-0.1,0-0.1-0.1v-0.7v-1.3c0.1-3,0.2-6,0.3-8.9c0.1-2.9,0.2-5.9,0.2-9l-0.1-10.1
					c-0.1-1.3-0.1-2.5-0.1-3.8c0-1.2,0.1-2.5,0.1-3.8v-2.4c-0.1-2.3-0.1-4.5-0.1-6.7c0-2.2,0.1-4.4,0.1-6.7c0-1.6,0-3.1-0.1-4.6
					c0-1.5-0.1-2.9-0.2-4.2c-0.2-1.5-0.3-2.6-0.3-3.5c0-0.2,0-0.4,0-0.6c0-0.2,0.1-0.3,0.2-0.4c0.1-0.1,0.4-0.3,0.7-0.5
					c0.3-0.2,0.8-0.5,1.5-0.8c0.1-0.1,0.1-0.1,0.1-0.2l0.5,0.1c0.1,0,0.3,0,0.5-0.1c0.2-0.1,0.4-0.1,0.7-0.1
					C2049.6,652.7,2049.8,652.8,2050,652.8z"/>
			</g>
			<path class="st6" d="M2077.9,790.2c-105-15.9-178.1-8.5-283.4,0.4c-0.7,0.1-1.3,0.3-1.9,0.6c-3.8,0.3-7.5,3.4-6.3,8.2
				c1.7,7.3,3.5,14.8,5.4,22.5c-35.8-24.9-102.9-44-117.5,9.5c-16.6,60.5,108.3,52.4,144.8,70.1c0.3,0.6,0.6,1.3,1.1,1.9
				c0.2,0.2,0.3,0.4,0.5,0.6c5.3,9.3,11.3,18,18.5,25.8c28.6,30.7,58.2,28.7,96.9,28.8c36.6,0.1,65.6,3.5,90.7-28.4
				c26.4-33.6,40.5-88.3,53.5-128.7C2083.8,798,2084,791.2,2077.9,790.2z M1788,880.6c-19.5-4.6-39.1-9.1-58.6-13.7
				c-8.3-2-17.8-2.9-25.4-7c-17.7-4.3-25.9-26.5-1.2-43.7c6.3-4.4,14.8-3.7,22.2-5.6c26.5-1.7,51.9,13.4,69.9,31.2
				c0.6,0.6,1.3,1,2,1.3c3.9,14.2,8.4,28.5,14.1,41.9C1803.2,883.2,1794.9,882.2,1788,880.6z M2032,891.4c-0.6-0.2-1.2-0.4-1.9-0.4
				c-0.8,0-1.6,0-2.5,0c-0.1,0-0.1,0-0.1,0c-66.4,2.1-132.7,1.5-199-1.6c-8-15.7-13.9-32.8-18.7-50.2c81.3-1.4,162.5-1.8,243.8-1.4
				C2047.3,856.2,2040.2,874.2,2032,891.4z"/>
			<path class="st6" d="M1962.5,497.6c16.9-27.5,31.7-52.7,17.3-84.4c-3.6-7.8-15.1-1-11.5,6.7c19.7,43.2-32.3,76.4-36.5,116.7
				c-1.2,11.9,0.5,23.8,5.5,34.8c6.9,15.3,28.7,30.1,27.8,47.6c-0.5,8.6,12.9,8.6,13.3,0c0.8-14.9-3.5-20.4-12.7-31.8
				C1941,556.8,1941.7,531.5,1962.5,497.6z"/>
			<path class="st6" d="M2011.7,500.1c16.9-27.5,31.7-52.7,17.3-84.4c-3.6-7.8-15.1-1-11.5,6.7c19.7,43.2-32.3,76.4-36.5,116.7
				c-1.2,11.9,0.5,23.8,5.5,34.8c6.9,15.3,28.7,30.1,27.8,47.6c-0.5,8.6,12.9,8.6,13.3,0c0.8-14.9-3.5-20.4-12.7-31.8
				C1990.3,559.3,1990.9,534,2011.7,500.1z"/>
			<path class="st6" d="M2061,500.1c16.9-27.5,31.7-52.7,17.3-84.4c-3.6-7.8-15.1-1-11.5,6.7c19.7,43.2-32.3,76.4-36.5,116.7
				c-1.2,11.9,0.5,23.8,5.5,34.8c6.9,15.3,28.7,30.1,27.8,47.6c-0.5,8.6,12.9,8.6,13.3,0c0.8-14.9-3.5-20.4-12.7-31.8
				C2039.5,559.3,2040.1,534,2061,500.1z"/>
		</g>
	</g>
	<g class="st2">
		
			<ellipse transform="matrix(0.7071 -0.7071 0.7071 0.7071 166.9082 2140.3823)" class="st5" cx="2667.1" cy="868.7" rx="59.6" ry="59.6"/>
		<path class="st7" d="M2785.3,869.8c1.2-15.9,1.9-32.2,1.9-48.9c0-155.7-54.2-281.9-121.1-281.9c-66.9,0-121.1,126.2-121.1,281.9
			c0,16.7,0.7,33,1.9,48.9H2785.3z"/>
		<path class="st4" d="M2722.6,571.2c-2.3,1.7-4.3,3-5.7,3.8c-14.8,8.3-32.3,8.8-48.8,8.7c-20.5-0.1-41.9-3-58.3-13.7
			c-1.5,1.8-2.9,3.6-4.3,5.5c21.9,14.5,52,16.4,78.3,14.8c15.8-1,30.4-4.5,43.1-13.5C2725.4,574.9,2724,573,2722.6,571.2z"/>
		<path class="st4" d="M2664.8,34.6c-1.9,0.1-3.9,0.1-5.8,0.1v548.6c0,9,14,9,14,0V34C2670.3,34.2,2667.6,34.5,2664.8,34.6z"/>
	</g>
	<g class="st2">
		
			<ellipse transform="matrix(0.8645 -0.5027 0.5027 0.8645 -351.9246 432.0509)" class="st5" cx="625.3" cy="868.7" rx="59.6" ry="59.6"/>
		<path class="st7" d="M743.5,869.8c1.2-15.9,1.9-32.2,1.9-48.9c0-155.7-54.2-281.9-121.1-281.9c-66.9,0-121.1,126.2-121.1,281.9
			c0,16.7,0.7,33,1.9,48.9H743.5z"/>
		<path class="st4" d="M680.8,571.2c-2.3,1.7-4.3,3-5.7,3.8c-14.8,8.3-32.3,8.8-48.8,8.7c-20.5-0.1-41.9-3-58.3-13.7
			c-1.5,1.8-2.9,3.6-4.3,5.5c21.9,14.5,52,16.4,78.3,14.8c15.8-1,30.4-4.5,43.1-13.5C683.6,574.9,682.2,573,680.8,571.2z"/>
		<path class="st4" d="M617.3,39.6v543.6c0,9,14,9,14,0V42.5C626.5,41.7,621.9,40.7,617.3,39.6z"/>
	</g>
	<path class="st8" d="M2829.5,2228.4c61.4-1.9,122.7-4.3,184.1-7v-7.3c-60.3,2.6-120.7,4.8-181,6.6l53.7-135.7h-7.5l-53.8,135.9
		c-172,5.1-344,7.5-516.1,8.4l57.1-144.4h-7.5l-57.1,144.4c-171.7,0.9-343.3,0.6-514.9,0.4c7.8-19.8,15.7-39.6,23.5-59.5l33.8-85.4
		h-7.5l-57.3,144.8c-81.9-0.1-163.8-0.1-245.6,0.1l-266.9,0.6c1.8-4.5,3.6-9,5.4-13.6l52.2-132h-7.5l-57.6,145.5l-511.8,1.2
		c7.9-20.1,15.9-40.1,23.8-60.2l34.2-86.5h-7.5l-58.1,146.8l-513.3,1.2c4.9-12.3,9.8-24.7,14.6-37l43.9-111h-7.5l-58.6,148
		l-256.8,0.6c0.1,2.3,0.1,4.7,0.1,7c84.6-0.2,169.2-0.4,253.9-0.6L80.6,2582.8l-122.8,0.3c0,2.3,0.1,4.7,0.1,7l119.9-0.3
		l-105.2,265.8c0.3,5.7,0.5,11.3,0.7,17C10.7,2778.3,48,2684,85.3,2589.7c171.1-0.4,342.2-0.8,513.3-1.2L469.4,2915
		c2,0.6,3.8,1.3,5.6,2.1c0.4-0.1,0.8-0.2,1.2-0.3L606,2588.5c170.6-0.4,341.2-0.8,511.8-1.2L988,2915.5c0.7,0,1.3-0.1,2-0.1
		c1.9,0,3.6,0.1,5.4,0.3c43.3-109.5,86.6-219,130-328.4c48.9-0.1,97.9-0.2,146.8-0.3c121.7-0.3,243.5,0,365.4,0.3l-129.9,328.2
		c0.2,0,0.4,0,0.6,0c2.3,0,4.6,0.1,6.8,0.3c43.3-109.5,86.7-219,130-328.5c171.4,0.5,343,1.1,514.5,0.5l-130.1,328.9
		c0.2,0,0.4,0,0.7,0c2.3,0,4.5,0.1,6.7,0.3c43.4-109.7,86.8-219.5,130.3-329.2c171.9-0.6,343.7-2.4,515.5-6.7l-132.2,334.2
		c2.5,0,5,0.1,7.3,0.4c43.7-110.4,88.7-224.3,132.4-334.7c107.9-2.8,215.7-6.7,323.5-11.8v-7.2c-106.7,4.9-213.5,8.6-320.4,11.2
		c42.1-106.4,84.2-212.8,126.3-319.2L2829.5,2228.4z M601.3,2581.5L88,2582.7c45.2-114.2,90.4-228.4,135.6-342.7
		c171.1-0.4,342.2-0.8,513.3-1.2L601.3,2581.5z M1120.6,2580.3l-511.8,1.2c45.2-114.2,90.4-228.4,135.6-342.7
		c170.6-0.4,341.2-0.8,511.8-1.2L1120.6,2580.3z M1640.7,2579.3c-48.2,0-96.4,0-144.6,0.1l-368,0.9
		c45.2-114.2,90.4-228.4,135.6-342.7c15.2,0,30.5-0.1,45.7-0.1c155.3-0.4,310.7,0.2,466.3,0.6L1640.7,2579.3z M2162.9,2579.3
		c-171.6,0.5-343.2,0-514.7,0c45-113.7,90-227.4,135-341.2c171.6,0.5,343.2,0.8,514.8-0.3L2162.9,2579.3z M2685.6,2573.2
		c-171.7,4.1-343.5,5.7-515.2,6.2c39.7-100.4,79.4-200.7,119.1-301.1l16-40.4c172.2-1.1,344.4-3.7,516.4-9.1L2685.6,2573.2z"/>
	<g class="st2">
		<path class="st3" d="M1376.5,618.5c-26.5-21.6-54.4-39.5-86.6-51.5c-34.8-12.9-70.4-13.6-106.2-21.3c-15.8-3.4-31.4-5.9-38.8-21.5
			c-8-16.9-3.6-49.2-3.1-67.7c1.1-41.1,4.9-81.9,2.5-123.1c-1-17-18.6-36.5-37.5-28.6c-12.1,5-21.4,13.5-28.8,23.9
			c8.9-41.4,16.7-82.7,16.2-125.7c-0.4-38.2-59.8-38.3-59.3,0c0.9,76.7-27.8,148.6-35.5,224.3c-3.6,35.1-0.2,69.8,0.3,105
			c0.5,35.8-6.2,73.4-3.2,108.9c5.1,60.1,72.4,44.2,114,36.9c38.5-6.8,78-2.1,116.8-2.7c42.8-0.7,85.5-3.5,128.2-6.3
			C1378.6,667.7,1398.1,636.1,1376.5,618.5z M1163.6,615.4c-28.6-0.4-54.8,3.3-82.8,8.6c-26,5-22.9,8.3-23.5-13.9
			c-0.2-6.1,0-12.3,0.3-18.5c17.3,5.5,39.8-3.5,40-27c0-0.7,0-1.5,0-2.2c2.7,4.3,5.7,8.3,9.4,12c22.4,22.5,56.5,28.6,86.5,32.7
			c15.4,2.1,30.2,4.6,44.4,7.9C1213.2,615.5,1188.4,615.8,1163.6,615.4z"/>
		<path class="st4" d="M1383.1,172h-46.6v0.1h-231.6v-0.1h-46.6v0.1h0v46.6h0v435h46.6v-0.1h278.2v0h0V172z M1104.9,218.8h231.6
			v388.3h-231.6V218.8z"/>
		<rect x="1094" y="204.3" class="st5" width="253.5" height="417.9"/>
		<path class="st6" d="M1287.7,366.4c-1.4-2.9-4.9-3.5-8.2-3.2c-39.5,3.5-79.1,1-118.6,0.1c-8.6-0.2-9.1,3.4-10.4,6.6
			c-3.9,9.4-3.5,36.5-0.4,47.1c1.9,6.6,2.5,8.4,9.3,10.9c15.3,5.5,41.6,0.8,57.6,0.9c21,0.2,42,0.3,63,0.5c3.6,0.8,7.4-0.4,8.8-4.3
			c0.8-1.2,1.4-2.7,1.5-4.5c0.2-11.2,0.3-22.4,0.3-33.6C1290.4,380.2,1292.3,371.3,1287.7,366.4z"/>
		<g>
			<path class="st5" d="M1171,406.4c-1.2-0.3-2.3-1.2-3.2-2c-0.9-0.9-1.7-2-2.1-3.2c-0.2-0.6-0.4-1.1-0.5-1.7
				c-0.1-0.6-0.1-1.3-0.1-2c0-0.6-0.1-1.3,0.1-1.9c0.1-0.6,0.4-1.2,0.6-1.8c0.3-0.6,0.7-1.1,1.1-1.7c0.4-0.5,0.7-1,1.2-1.5
				c0.9-1,2.1-1.5,3.4-1.9l2-0.5c0.6-0.1,1.2-0.1,1.7,0c1.3,0.2,2.6,0.6,3.8,1.2c1.3,0.7,0.4,2.1-0.3,2.9c-1,1.1-2.2,0.2-3.3,0
				c-0.9-0.1-2-0.1-2.8,0.1c-0.6,0.2-1.1,0.7-1.6,1.1c-0.5,0.5-0.8,1-1.2,1.5c-0.5,0.9-0.6,2.1-0.5,3.2c0.1,1.1,0.6,2.3,1.4,3.1
				c0.4,0.4,1,0.9,1.6,1.1c0.5,0.2,1.1,0.2,1.6,0.3c1.1,0.1,2.4-0.1,3.4-0.6c0.5-0.3,1.1-0.7,1.7-0.6c0.6,0.1,1.2,0.7,1.6,1.1
				c0.4,0.4,0.6,1,0.4,1.5c-0.2,0.6-1,1-1.5,1.3c-1.2,0.7-2.4,1.1-3.8,1.3c-0.1,0-1.4,0.2-1.4,0.1
				C1173.3,406.9,1172.1,406.7,1171,406.4z"/>
			<path class="st5" d="M1202,396.7c0.1,0.9,0.1,1.7-0.1,2.6c-0.2,1.1-0.4,2.2-0.9,3.2c-0.5,1-1.2,1.7-2.1,2.4
				c-0.9,0.6-1.7,1.2-2.8,1.5c-1,0.3-2.2,0.7-3.3,0.6c-1.8,0.1-3.8-0.6-5.3-1.6c-0.8-0.5-1.4-1.4-2-2.1c-0.5-0.8-1-1.6-1.2-2.4
				c-0.6-1.7-0.8-3.8-0.2-5.6c0.6-1.7,1.6-3.5,3-4.7c0.7-0.6,1.6-1,2.5-1.4c0.9-0.4,1.8-0.7,2.8-0.8c0.9-0.1,1.9,0,2.8,0.2
				c0.9,0.2,1.8,0.6,2.6,1.2c0.8,0.6,1.5,1.3,2.1,2c0.6,0.7,1.2,1.5,1.5,2.3C1201.7,394.8,1201.9,395.8,1202,396.7z M1197.9,396.3
				c-0.2-0.9-0.7-2-1.5-2.7c-1.6-1.3-3.9-1.7-5.8-0.6c-1.9,1.2-3,3.3-2.5,5.6c0.2,1.1,0.7,2.4,1.6,3.1c1.1,0.8,2.2,1.1,3.5,1.1
				c0.5,0,1.1,0,1.5-0.1c0.5-0.1,0.9-0.4,1.2-0.7c0.8-0.6,1.5-1.6,1.8-2.5C1198.2,398.3,1198.2,397.3,1197.9,396.3z"/>
			<path class="st5" d="M1206,397.3c0.1-1.2-0.2-2.3-0.1-3.5c0.1-0.6,0.2-1.2,0.1-1.8c-0.1-0.7-0.2-1.4-0.1-2.1
				c0-0.5,0.1-1.1,0.5-1.3c0.5-0.3,1.3,0,1.9,0c1.2,0,2.4-0.1,3.5-0.1c1.2,0,2.4,0.1,3.6,0.1c0.6,0,1.2,0,1.8,0.1
				c0.5,0,1.1,0.2,1.4,0.6c0.3,0.4,0.2,1.1,0.2,1.5c0,0.5-0.1,1.1-0.6,1.4c-0.4,0.3-1,0.3-1.5,0.2c-0.6,0-1.3,0.1-1.9,0.1
				c-1.2,0.1-2.4-0.1-3.5,0.1c-0.4,0-0.9,0.1-1.1,0.5c-0.1,0.2-0.1,0.5-0.1,0.7c0,0.3,0,0.7,0,1.1c0,0.5,0.1,0.9,0.7,1
				c0.6,0.1,1.2,0,1.8,0c0.7-0.1,1.3-0.2,2-0.2c0.6,0,1.2,0.1,1.7,0.5c0.8,0.8,0.7,2.7-0.6,3.1c-0.6,0.2-1.4,0-2,0
				c-0.6,0-1.3,0-2,0.1c-0.6,0-1.3,0.1-1.4,0.7c-0.1,0.6,0,1.2,0,1.8v0.2c0,1.1-0.1,2.2-0.2,3.3c-0.1,0.5-0.2,0.9-0.7,1.1
				c-0.5,0.2-1.2,0.1-1.7,0.1c-0.5,0-1.1,0.1-1.4-0.3c-0.3-0.5-0.1-1.2-0.1-1.8c0-0.6-0.1-1.2-0.1-1.8c0-0.7,0-1.3,0-1.9
				C1205.8,399.6,1205.8,398.5,1206,397.3z"/>
			<path class="st5" d="M1222.1,397.3c0.1-1.2-0.2-2.3-0.1-3.5c0.1-0.6,0.2-1.2,0.1-1.8c-0.1-0.7-0.2-1.4-0.1-2.1
				c0-0.5,0.1-1.1,0.5-1.3c0.5-0.3,1.3,0,1.9,0c1.2,0,2.4-0.1,3.5-0.1c1.2,0,2.4,0.1,3.6,0.1c0.6,0,1.2,0,1.8,0.1
				c0.5,0,1.1,0.2,1.4,0.6c0.3,0.4,0.2,1.1,0.2,1.5c0,0.5-0.1,1.1-0.6,1.4c-0.4,0.3-1,0.3-1.5,0.2c-0.6,0-1.3,0.1-1.9,0.1
				c-1.2,0.1-2.4-0.1-3.5,0.1c-0.4,0-0.9,0.1-1.2,0.5c-0.1,0.2-0.1,0.5-0.1,0.7c0,0.3,0,0.7,0,1.1c0,0.5,0.1,0.9,0.7,1
				c0.6,0.1,1.2,0,1.8,0c0.7-0.1,1.3-0.2,2-0.2c0.6,0,1.2,0.1,1.7,0.5c0.8,0.8,0.7,2.7-0.6,3.1c-0.6,0.2-1.4,0-2,0
				c-0.7,0-1.3,0-2,0.1c-0.6,0-1.3,0.1-1.4,0.7c-0.1,0.6,0,1.2,0,1.8v0.2c0,1.1-0.1,2.2-0.2,3.3c-0.1,0.5-0.2,0.9-0.7,1.1
				c-0.5,0.2-1.2,0.1-1.7,0.1c-0.5,0-1.1,0.1-1.4-0.3c-0.3-0.5-0.1-1.2-0.1-1.8c0-0.6-0.1-1.2-0.1-1.8c0-0.7,0-1.3,0-1.9
				C1221.9,399.6,1222,398.5,1222.1,397.3z"/>
			<path class="st5" d="M1251.1,404.1c0,0.7,0,1.5-0.3,2c-0.4,0.6-1,0.7-1.6,0.6c-0.8,0-1.6,0-2.4,0c-1.6,0.1-3.1,0-4.7,0.1
				c-0.7,0.1-1.5,0.1-2.2,0.1c-0.6,0-1.5,0.2-1.8-0.5c-0.3-0.6-0.1-1.5-0.1-2.1c0-0.7,0-1.5,0.1-2.2c0-0.7,0.1-1.5,0.1-2.2
				c0-0.7-0.1-1.5-0.1-2.2s0-1.5,0.1-2.2c0.1-0.8,0.1-1.6,0.1-2.4c0-0.8,0.1-1.5,0-2.3c0-0.6-0.2-1.5,0.4-1.9c0.5-0.3,1.4-0.1,2-0.2
				c0.7,0,1.4-0.1,2.1-0.1c1.5,0,3,0.2,4.5,0c1.1-0.1,3.4-0.5,3.7,1c0.1,0.6,0.1,1.5-0.2,2.1c-0.3,0.7-1,0.8-1.6,0.8
				c-1.5,0.1-3-0.1-4.5-0.1c-0.7,0-1.5,0-2.1,0.2c-0.6,0.2-0.6,1-0.6,1.6c0,0.6,0,1.4,0.7,1.6c0.7,0.2,1.6,0,2.3,0
				c1.1,0,3.3-0.2,3.7,1.3c0.2,0.6,0.1,1.4-0.2,1.9c-0.4,0.6-1.1,0.6-1.8,0.6c-0.2,0-2.2,0.1-2.2,0.1h0c-0.4,0-0.7,0-1.1,0
				c-0.3,0-0.8-0.1-1,0.1c-0.2,0.2-0.2,0.6-0.2,0.8c0,0.3,0,0.7,0,1c0,0.3-0.1,0.7,0.1,0.9c0.2,0.3,0.6,0.3,0.9,0.3h2.1
				c1.4,0,3-0.2,4.4,0.1C1250.5,403,1251.1,403.4,1251.1,404.1z"/>
			<path class="st5" d="M1268,404.1c0,0.7,0,1.5-0.3,2c-0.4,0.6-1,0.7-1.6,0.6c-0.8,0-1.6,0-2.4,0c-1.5,0.1-3.1,0-4.7,0.1
				c-0.7,0.1-1.5,0.1-2.2,0.1c-0.6,0-1.5,0.2-1.8-0.5c-0.3-0.6-0.1-1.5-0.1-2.1c0-0.7,0-1.5,0.1-2.2c0-0.7,0.1-1.5,0.1-2.2
				c0-0.7-0.1-1.5-0.1-2.2c-0.1-0.7,0-1.5,0.1-2.2c0.1-0.8,0.1-1.6,0.1-2.4c0-0.8,0.1-1.5,0-2.3c0-0.6-0.2-1.5,0.4-1.9
				c0.5-0.3,1.4-0.1,2-0.2c0.7,0,1.4-0.1,2.1-0.1c1.5,0,3,0.2,4.5,0c1.1-0.1,3.4-0.5,3.7,1c0.1,0.6,0.1,1.5-0.2,2.1
				c-0.3,0.7-1,0.8-1.6,0.8c-1.5,0.1-3-0.1-4.5-0.1c-0.7,0-1.5,0-2.1,0.2c-0.6,0.2-0.6,1-0.6,1.6c0,0.6,0,1.4,0.7,1.6
				c0.7,0.2,1.6,0,2.3,0c1.2,0,3.3-0.2,3.7,1.3c0.2,0.6,0.1,1.4-0.2,1.9c-0.4,0.6-1.1,0.6-1.8,0.6c-0.2,0-2.2,0.1-2.2,0.1h0
				c-0.4,0-0.7,0-1.1,0c-0.3,0-0.8-0.1-1,0.1c-0.2,0.2-0.2,0.6-0.2,0.8c0,0.3,0,0.7,0,1c0,0.3-0.1,0.7,0.1,0.9
				c0.2,0.3,0.6,0.3,0.9,0.3h2.1c1.4,0,3-0.2,4.4,0.1C1267.4,403,1268,403.4,1268,404.1z"/>
		</g>
		<path class="st6" d="M1308.6,471.3c-0.9-32.7-3.3-65.2-6.9-97.7c0-0.4-0.2-0.7-0.3-1c0,0,0-0.1,0-0.1c-0.8-19.5-0.5-47.9-17.9-61
			c-5.5-4.2-12-5.9-18.7-6.8c1.6-5.5,4.7-9.2,8.4-13.8c2.4-3,3.9-6.7,2.5-10.5c-1.2-3.3-3.8-4.8-7.1-5.4c-6-1.1-11.6-2.6-17.4-4.5
			c0-2.3-0.2-4.6-0.7-6.6c-2.2-9-14-4.7-20.4-3.5c-6.6,1.2-38.6,2.9-45.1,4.9c-3.5,1.1-8.9,1.9-11.3,5.1c-2.7,3.6-0.3,8.4,1.2,12
			c2.6,6.5,5.6,12.7,6.4,19.6c-0.3,0.1-0.7,0.1-0.9,0.2c-49.8,8.9-50.1,58.2-49.3,99.6c0.6,30.9,2.6,61.8,2.6,92.7
			c0,11.5-7.8,42,6.1,49.1c8.4,4.3,24.3-0.3,32.9-0.8c14.7-0.8,54.9-1,69.6-0.8c14.7,0.3,29.4,2.2,44.1,2.4c5.5,0.1,12.5,0.7,17-3.2
			c6.2-5.3,5.3-13.5,5.4-20.9C1309.3,504,1309.1,487.6,1308.6,471.3z M1264.7,282.9c3.1,0.4,3.3,0.5,1.4,3.2
			c-4.3,5.9-8.2,10.2-9.8,17.6c-2.6-0.2-5.2-0.4-7.9-0.5c1-6.2,1.8-12.4,2.2-18.7c0.1-1.6,0.3-3.4,0.4-5.2c3,1,5.9,2,9,2.7
			C1261.5,282.4,1263.1,282.7,1264.7,282.9z M1185.8,273.8c4-1.9,9.2-2.8,13.5-3.8c4-1,33.5-1.8,37.7-2.4c1.4-0.2,2.7-0.4,4.1-0.6
			c2.6-0.9,3.2-0.8,1.9,0.4c0.1,0.2-0.5,4.7-0.5,5.6c0,10-0.9,19.9-2.5,29.7c-8.2-0.3-41.9-0.6-50-0.8c-0.6-6.1-2.4-11.6-4.7-17.3
			C1182.9,279.5,1180.1,276.5,1185.8,273.8z M1286.5,535.9c-8.5,2.2-23.2-1.7-32.1-2.1c-21.4-0.8-68.3-0.5-89.7,0.9
			c-16.5,1.1-20.6,1.3-23.1-16.2c-1.4-10.1,0.5-21.9,0.5-32.2c-0.2-21.5-1.3-43-2-64.5c-1.4-41.1-10.4-102.7,43.3-111.8
			c18.1,0.6,65.7-1.6,83.1,3.1c25.8,7,25.4,37.3,26.3,59.1c0,0.5,0.2,0.9,0.3,1.3c4.8,43.2,7.4,86.7,7.4,130.2
			C1300.6,517.3,1301.7,531.9,1286.5,535.9z"/>
		<path class="st6" d="M1282.8,503.2c-11.7-0.1-23.3-0.2-35-0.3c-5.5,0-5.5,8.4,0,8.5c11.7,0.1,23.3,0.2,35,0.3
			C1288.3,511.7,1288.3,503.3,1282.8,503.2z"/>
		<path class="st6" d="M1282.3,347.4c-41.7,0.4-83.3,0.5-125,0.2c-5.5,0-5.4,8.4,0.1,8.5c41.7,0.3,83.3,0.2,125-0.2
			C1287.9,355.8,1287.8,347.3,1282.3,347.4z"/>
		<path class="st6" d="M1282.9,440.6c-41.7,0.4-83.3,0.5-125,0.2c-5.5,0-5.4,8.4,0.1,8.5c41.7,0.3,83.3,0.2,125-0.2
			C1288.4,449,1288.3,440.5,1282.9,440.6z"/>
	</g>
	<g class="st2">
		<path class="st4" d="M2595.7,1966h35.9v0c0-18.9-10.2-35.4-25.4-44.4l28.7-449.8c0.6-8.5-5.9-15.8-14.4-16.3
			c-8.5-0.5-15.8,5.9-16.3,14.3l-1.4,21.3h-40.7l1.1-17.5c0.6-8.5-5.9-15.8-14.4-16.3c-8.5-0.5-15.8,5.9-16.3,14.3l-28.6,442.9
			h-147.5c-28.5,0-51.5,23.1-51.5,51.5v0h30.5l-84.1,543.7l31.8,0.4l83.3-544.1h198.2l82.9,541.2l31.8-0.4L2595.7,1966z
			 M2535.1,1914.4l15-234.4h40.6l-15.1,234.4H2535.1z"/>
		<path class="st9" d="M2635.3,1884.7c-111.6-59.1-240.5-59.6-352.6-1.4c-6.7,3.5-7,14.7,0,18.1c16.3,7.8,32.1,16.6,49.8,20.8
			c27.4,6.5,213.4,20.2,302.8-19.4C2642.5,1899.6,2641.8,1888.1,2635.3,1884.7z"/>
		
			<rect x="2246.1" y="1189.2" transform="matrix(0.9559 -0.2938 0.2938 0.9559 -271.0741 728.8577)" class="st10" width="88.6" height="154.9"/>
		<path class="st11" d="M2309.8,1225.3c5.8-23.5-2.5-34.2-3.4-30c-0.6,2.8-1.3,21-2,23.8c-1,0.3-1.9,1-2.3,2.3
			c-0.1,0.6-0.3,1.1-0.5,1.7c-6.9,8.9-14.2,17.4-21.7,25.8c-4,3.7-8.1,7.3-12.2,10.8c-1-1.1-2.5-1.7-4-0.5c-0.2,0.2-0.5,0.4-0.7,0.6
			c0,0,0,0,0,0c0,0-0.1,0.1-0.1,0.1c-6,4.7-11.1,9.7-15.8,15.5l4.7,15.3C2281.6,1280.9,2300.6,1254.9,2309.8,1225.3z"/>
		<path class="st12" d="M2243.1,1479.9c-1.1-22.4-36-22.5-34.9,0c0.5,9.7-6,18-16.6,25.2c1.4-2.4,2.1-4.9,2.2-7.3
			c1.1-0.7,2.2-1.4,3.3-2.2c19.1-12.6,2.6-39.2-17.6-30.2c-6.1,2.7-11.9,5.9-17.6,9.3c4.1-7.1,8.3-14.1,12.7-21
			c4-6.4,3.2-12.7,0-17.4c4.8-16.1-13.5-29.3-25.6-21c10.9-18.4,21.1-36.7,31.5-53.3c4.8-7.6-22.1,2.2-26.9,9.8
			c-33.6,53.6-53.1,118-114.1,144.8c-19.6,8.6-40.4,11-61.6,11.5c-7.8,0.2-22.2-2.2-29.6,2.5c-11.3,7.2-12.4,25.9-13.6,37.8
			c-0.3,2.7,2.4,6.3,5.1,6.7c74.2,11.9,197,23.6,259.5-34.5C2225.7,1526.8,2244.4,1507.7,2243.1,1479.9z"/>
		<path class="st10" d="M2061.7,2384.9c3.4-63.3,7.9-126.5,13.2-189.7c0.7-8.1,11.7-11,17.2-6c7.7,6.9,12.3,16.3,14.8,26.8
			c1.5,6.1,4.8,11.3,8.4,16.4c0.8,1.1,1.3,2.3,1.6,3.7c0.7-5.1,1.5-10.1,2.2-15.2c1.9-13.4,22.6-9.6,20.6,3.7
			c-9.1,62.3-18.1,124.5-27.2,186.8c-2.5,17.1-2.2,77.9-36.6,65c-6.5-2.4-10.8-7-13.8-12.8c-0.6,0-1.1,0-1.6-0.2c0,0-0.1,0-0.1,0
			c-1.4,0.2-2.8,0.3-4.2,0.5c-3.6,3.1-7.9,2.2-10.3-0.5c-1.5-0.1-3-0.1-4.5-0.2c-2.2-0.2-3.8-1.6-4.8-3.4c-1.9,0.7-3.5,1-6,0.2
			c-6-1.9-7.6-8.6-2.7-12.7c8.1-6.8,18.8-10.8,25-19.7c0.1-0.1,0.2-0.3,0.3-0.4c3.2-4.8,4.9-10.4,5.6-16.1
			C2059.9,2401,2061.3,2391.6,2061.7,2384.9z"/>
		<path class="st6" d="M1975.2,2458.1c18-4.1,53.6-4.5,63.6-25.2c8.3,6.7,13.6,17.4,26.4,17c17.9-0.5,34.7-21.8,52.6-14.9
			c7.9,22.1,14.4,50.9-2.5,58.4c-8.6,3.8-28.1,1.7-36.9,2c-15.7,0.6-21.6-0.3-37.3-0.2c-31.4,0.1-55.8-0.6-87.1-2.7
			c-5.8-0.4-7.6-11.2-7.1-15.7C1948.5,2464.3,1962,2461.1,1975.2,2458.1z"/>
		<path class="st13" d="M2041.1,2495.2c-31.4,0.1-55.8-0.6-87.1-2.7c-4.6-0.3-6.6-7.1-7.1-12.1c59.3,2.6,118.5,3.1,177.8,1.4
			c-1.5,5.3-4.4,9.4-9.4,11.6c-8.6,3.8-28.1,1.7-36.9,2C2062.7,2496,2056.8,2495.1,2041.1,2495.2z"/>
		<path class="st13" d="M2034.5,2439.1c-1.6,1.7-3.4,3.2-5.3,4.5c2.7,4,5.5,7.9,8.5,11.7c2.8,3.5,7.7-1.4,4.9-4.9
			C2039.8,2446.8,2037.1,2443,2034.5,2439.1z M2014,2450.6c2.4,3.9,4.7,7.8,7.1,11.8c2.3,3.9,8.4,0.3,6-3.5l-6.4-10.7
			C2018.5,2449.1,2016.3,2449.9,2014,2450.6z"/>
		<path class="st13" d="M1590.4,2461.6L1590.4,2461.6c-9.5,0-17.3-7.7-17.3-17.3V2424h34.5v20.3
			C1607.6,2453.8,1599.9,2461.6,1590.4,2461.6z"/>
		<path class="st13" d="M1595,2347.7L1595,2347.7c-9.5,0-17.3-7.7-17.3-17.3v-20.3h34.5v20.3C1612.3,2340,1604.6,2347.7,1595,2347.7
			z"/>
		<path class="st13" d="M1951.1,2469.7L1951.1,2469.7c-9.5,0-17.3-7.7-17.3-17.3v-20.3h34.5v20.3
			C1968.3,2462,1960.6,2469.7,1951.1,2469.7z"/>
		<path class="st13" d="M1956.9,2343.6L1956.9,2343.6c-9.5,0-17.3-7.7-17.3-17.3v-20.3h34.5v20.3
			C1974.2,2335.9,1966.4,2343.6,1956.9,2343.6z"/>
		<polygon class="st4" points="1559.3,2260.1 1997,2401.8 1995.5,2456.3 1559.4,2314.4 		"/>
		<polygon class="st4" points="1544.6,2395.6 1984,2259.1 1982.8,2312.2 1546.9,2448 		"/>
		<path class="st4" d="M2079.8,1633.9h-630.7l0,0c0-28.5,23.1-51.5,51.5-51.5h527.6C2056.7,1582.3,2079.8,1605.4,2079.8,1633.9
			L2079.8,1633.9z"/>
		
			<rect x="1402.9" y="1936" transform="matrix(-1.836970e-16 1 -1 -1.836970e-16 3730.9097 192.707)" class="st4" width="732.5" height="51.5"/>
		<path class="st11" d="M2310,1179.3c3.6-2.6-0.1-8.6-3.7-5.9c-3.7,2.7-5.3,6.8-5.6,11.2c-0.3,3.7,0.4,10.2,3.6,12.8
			c1.9,1.5,5.3,1,5.8-1.8c0-0.1,0-0.1,0-0.2c0.2-1.4-0.3-2.4-1.1-3.2c0,0,0,0,0.1,0c-1.4-1.1-1.5-5.1-1.4-6.7
			C2307.6,1183.4,2308.1,1180.7,2310,1179.3z"/>
		<path class="st10" d="M2307.7,1146.8c-6.5-42.3-38-94.5-85.1-86.5c-3.2-3-7.7-4.5-13.1-2.9c-55,16-56.4,84.9-48.9,129.8
			c7.4,44.3,25,95.5,71.9,88.7C2312.9,1264.2,2314.8,1193,2307.7,1146.8z"/>
		<path class="st4" d="M2248.7,1175.5c0.1,5.1-2.1,9.2-5,9.3c-2.9,0.1-5.3-4-5.4-9.1c-0.1-5.1,2.1-9.2,5-9.3
			C2246.2,1166.4,2248.6,1170.4,2248.7,1175.5z"/>
		<path class="st4" d="M2186,1176.2c0.1,5.1-2.1,9.2-5,9.3c-2.9,0.1-5.3-4-5.4-9.1s2.1-9.2,5-9.3
			C2183.5,1167,2185.9,1171.1,2186,1176.2z"/>
		<path class="st14" d="M2263.7,1144.4c-11.8-3.8-33.8-2.9-40.1,6.7c-1.7,2.6,1.2,4.6,4.1,4.5c9.2-0.3,37,0.7,42.1-0.8
			c1.5-0.4,2.4-1.7,2.5-3.1C2272.3,1149.2,2270.6,1146.6,2263.7,1144.4z"/>
		<path class="st14" d="M2195.2,1151.2c-6-9-25.7-10.3-37.8-7.3c0,4,0.2,7.9,0.4,11.7c10.5,0.3,26.6-0.2,33.2,0
			C2194,1155.8,2196.9,1153.8,2195.2,1151.2z"/>
		<path class="st11" d="M2218.5,1208.2c-4.2,0.8-10.8,1.9-13.9-2.4c-2.2-3.1-1.4-8.2-1.1-11.6c0.6-6.9,1.4-13.8,2.1-20.6
			c0.5-4.4-6.3-6.1-6.8-1.6c-1,10.1-5.3,25.3-1.3,35.2c4,9.8,14.3,9.3,23.1,7.7C2225,1214,2222.9,1207.4,2218.5,1208.2z"/>
		<path class="st11" d="M2234,1226.6c-12.2,3.8-24.6,4.7-37.2,2.6c-3.6-0.6-5.3,3.7-3.5,5.8c0.1,0.3,0.3,0.7,0.5,0.9
			c11.5,11.6,35.9,12.7,44.6-5.2C2239.6,1228.4,2236.6,1225.8,2234,1226.6z"/>
		<path class="st4" d="M2510.2,1761.3c-2-16.8-149.8,0.5-160.3,9.9c-51.1,45.2-136,115.3-186.3,161.3
			c-43.2,39.5-60.9,83.2-75.9,138.9c-17.3,64.2-36.8,234.8-39.6,298.7c-0.3,5.8,4.5,12.2,10.3,13.5l42.9,9.4
			c1.3,0.3,2.6,0.4,3.8,0.3c6.9,2.2,15.3-0.1,18-9c23.6-77.6,52.5-224.9,71.1-259.1c20.9-38.3,50.4-58.1,88.8-76.1
			c56.1-26.3,155.2-72.8,192.5-125.5c15.1-21.2,24.9-45.1,30.7-70.1C2507.1,1851.9,2513.1,1785.6,2510.2,1761.3z"/>
		<path class="st13" d="M2483.2,1759.6c-1-4.4-7.7-2.5-6.7,1.9c4.3,18.9-1.8,33.7-14,48.1c-5.5,6.5-11.5,12.8-14.1,21.1
			c-3.1,9.8-0.7,20.4-3.9,30.1c-3.9,12-17.9,16.9-25.1,27.5c-7,10.3-11.3,21.1-20.8,29.7c-9.6,8.7-21.6,14.5-33.4,19.7
			c-23.9,10.6-48,20.4-71.1,32.6c-42.6,22.6-81,51.7-109,91.4c-27.8,39.4-44.8,85.5-56.9,131.9c-15.3,59-24.7,119.8-32.6,180.2
			c-0.6,4.4,6.4,4.4,7,0c7.6-57.9,16.7-116.1,30.9-172.8c12.7-50.4,30.9-100.7,62.5-142.6c33.4-44.2,81.1-73.5,130.7-96.4
			c22.4-10.3,47.4-17.9,67.8-32.1c19.5-13.5,25.6-36.5,44.2-50.2c20.9-15.4,9-40.1,23.8-59.4
			C2477.6,1800.5,2489.3,1786,2483.2,1759.6z"/>
		<path class="st10" d="M2261.3,2027.8c-27.5-24.8-57.8-47-86.6-70.3c-7.1-5.7-15.3,4.5-9,10.7c1.2,1.2,2.4,2.3,3.6,3.4
			c-4.7-2.2-9.5-4.4-14.4-6.5c-6.9-3-14.2,7-7.5,11.7c2.9,2,5.7,4,8.6,6c-3-0.9-5.9-1.9-9-2.7c-4.8-1.2-7.7,2.6-7.8,6.6
			c-0.5-0.3-0.9-0.6-1.4-0.8c-7.9-4.4-13.7,8.3-5.9,12.7c30.3,17,56.9,41,88.9,55.1c11.6,5.1,43.8,19.4,54.7,6.7
			C2285.5,2048.6,2268.8,2034.6,2261.3,2027.8z"/>
		<path class="st4" d="M2437.4,1650.5c-0.8,0.2-127.5,20.7-134.5,23.6c-8.4,2.3-50,69.8-56.8,73.4c-55.9,30-160.1,57.7-214.4,90.5
			c-27.6,16.7-65.2,39.4-56.3,77.7c8.5,36.7,56.1,56.8,85.2,73.6c43.8,25.4,112.1,46.8,116.8,48.7c3.8,2.6,9.1,3.1,13.4-0.7l35.3-31
			c4.2-3.7,3.7-11.1-0.2-14.8c-15.9-15.3-55.6-53.7-57.4-64.9c-3.4-21.1,96.9-50.3,115.6-57.8c6.2-2.5,7.9-8.9,6.4-13.9
			c1.9-3.1,2-7,0.6-10.3c7.6-2.5,15.2-5,22.8-7.5c9.4-3.1,8.9-14.5,2.7-18.9c1.3-0.5,2.7-1,4-1.6c6.2-2.4,8-8.6,6.6-13.6
			c5.3-2.7,6.6-8.4,5-13c2-0.7,4-1.3,6-2C2350.9,1783.9,2450.4,1646.5,2437.4,1650.5z"/>
		<path class="st6" d="M2262.5,2018.3c-6.9-0.5-10.6,3.1-15.9,7.3c-8.7,6.9-20.4,15.2-25.3,25.6c-6.1,13.1,1.9,27.1-9.1,39.1
			c-9,9.8-19.2,18.5-28.2,28.3c-10.2,11.2-25.7,25.1-15.5,41c1.3,2,3.5,1.9,5,0.9c6.1,5.4,15.9,6.1,20.1-3.3
			c5.6-12.3,17.7-22,26.9-31.6c8.4-8.9,16.9-17.7,25.3-26.6c5.2-1.2,9.6-4.9,13.6-9.1c4-4.2,7.8-8.6,11.5-13c6,3.4,14.1,3,18.3-4.9
			c5.1-9.5,6.7-20.6,3.5-29.7c2.9,2.9,5.1,6.1,5.7,9.7c0.7,4.4,7.5,2.5,6.7-1.9C2302.6,2034.6,2277.3,2019.2,2262.5,2018.3z"/>
		<path class="st13" d="M2181.2,2170.7c-34.3-11.4,1.4-40.7,22-52.5c10.3-5.9,20.2-9,30-19.9c22.5-24.9,19.7-34.7,29.8-45.3
			c9.8-10.3,19.6-17.4,29.8-16.9c4.6,0.2,10.2,4.4,12.1,7.5c9.6,15.7-20.8,49.2-36.3,60.6
			C2243.5,2122.6,2221.6,2184.2,2181.2,2170.7z"/>
		<path class="st13" d="M2237.2,1970.5c-18.7-15.2-41.3-25.6-61.6-38.6c-3.8-2.4-7.3,3.6-3.5,6c19.7,12.7,41.9,22.7,60.2,37.5
			C2235.8,1978.2,2240.7,1973.3,2237.2,1970.5z"/>
		<path class="st13" d="M2161.5,2037c-13-8.6-26.5-16.3-40.5-23.2c-4-2-7.6,4-3.5,6c14,6.9,27.5,14.6,40.5,23.2
			C2161.7,2045.5,2165.3,2039.4,2161.5,2037z"/>
		<path class="st13" d="M2291.9,1807.3c-18.8,26.3-42.8,47.5-71.1,63.1c-3.9,2.2-0.4,8.2,3.5,6c29.3-16.2,54.1-38.4,73.6-65.6
			C2300.5,1807.2,2294.5,1803.7,2291.9,1807.3z"/>
		<path class="st12" d="M2507.8,1697c-2.2-25.5,6.5-50,3.8-75.3c-6.2-58-22.2-119.1-36.7-175.6c-13.1-51.3-22-108.4-72.5-135.8
			c-18.2-9.9-37.2-14.5-57.9-17.3c-24.7,16.7-68.6,25.9-92.7,11.2c-8.2,3.1-16.4,6.7-24.3,11.1c-32.2,18.2-70.6,37.5-82.2,73.4
			c-14.4,44.5,3.4,95.4,20.5,136.2c11,26.3,23.9,51.8,33.9,78.5c6.1,16.3,9.2,26.5,7.5,44.4c-1.1,12-5.6,24.3-5,36.3
			c0.3,6.9,19.3,19.8,21.7,26.2c4.2,11.3-5.5,19.8-0.4,30.1c7.9,15.9,18.5,14.9,35,19.5c3.9,1.1,7.8,2.2,11.8,3.2
			c6.3,2.2,12.7,3.9,19,5.1c46.3,12.2,93.1,22.4,141,25.6c33.3,2.2,75.8,3.6,83.2-37.5C2516.9,1736.7,2509.5,1716.5,2507.8,1697z"/>
		<path class="st14" d="M2344.2,1110.6c-1.9-10.4-5.7-19.5-10.9-27.3c2.3-12.5-0.5-25.2-10.5-33.9c-4.7-4.1-10.5-6.7-16.6-7.6
			c-3.6-0.6-7.4,0.3-10.9-0.2c-8.9-1.1-15.7-6.3-23.3-11c-10.3-6.4-22.4-15.2-35.1-10.4c-7.9,3-11.9,9.5-13.9,17
			c-2.9-3.7-6.2-7.1-10-9.9c-7.9-5.8-21.9-13-29.7-3.6c-3.5,4.2-4.5,9.1-3.7,14c-0.9-1.2-1.8-2.3-2.8-3.4
			c-5.8-7.3-13.1-15.4-23-14.3c-13.9,1.4-15,14.1-11.6,25.8c-0.9,0.2-1.8,0.4-2.6,0.8c-16.1,6.1-17,26.6-10.2,40.2
			c7,14.1,21,27.9,37.1,21.2c4.5-1.9,9.3-4.4,14.2-7.3c0.2-0.1,0.5-0.1,0.7-0.2c18.9-7.2,37.7-6.3,57.8-4.2c13,1.4,20,4.1,30.6,12.5
			c13.6,10.8,11.1,28.5,16,42.8c2.4,6.9,22.1,16.5,22.7,23.7c0.1,1.2,0.4,2.2,0.9,3.1c-1.3,10.4-5.3,20.5,1.1,29.1
			c1.5,2,4.4,2.2,6.5,1.8c12.1-2.3,13.5-20.5,16.2-30.2C2339.5,1157.3,2348.5,1133.7,2344.2,1110.6z"/>
		<path class="st10" d="M2310.1,1159.7c-9.2-10.2-13.1-5.3-22.6,2.8c-6.7,5.7-7.3,12.4-0.6,6.8c3.6-3,6.5-3.7,8.8-2.9
			c-1.7,0.8-3.1,2.1-3.7,3.8c-5.2,13.9-9.6,27.9-13.2,42.2c-2,7.8-2.1,4.3,1.1-2.1c17.8,4.9,29.1-8.1,31.7-14
			C2316.3,1185,2319.1,1169.7,2310.1,1159.7z"/>
		<path class="st11" d="M2295,1187.8c-3.8,2.4-0.5,8.5,3.3,6.1c3.8-2.4,5.7-6.4,6.4-10.8c0.5-3.7,0.3-10.2-2.7-13
			c-1.8-1.6-5.2-1.4-5.9,1.4c0,0.1,0,0.1,0,0.2c-0.3,1.4,0.1,2.4,0.9,3.2c0,0,0,0-0.1,0c1.3,1.2,1.1,5.2,1,6.8
			C2297.7,1183.9,2296.9,1186.6,2295,1187.8z"/>
		<path class="st15" d="M2249.4,1071c-10.6-4.2-15.3-12.4-19.6-22.2c-1.8-4.1-7.8-0.6-6,3.5c2.5,5.8,4.8,11.1,9.2,15.8
			c4.1,4.4,9.1,7.5,14.7,9.7C2251.7,1079.4,2253.5,1072.6,2249.4,1071z M2209.4,1069.2c-4.4-0.6-7.9-2.7-11.1-5.7
			c-2.8-2.7-6.4-6.1-7.9-9.6c-1.7-4.1-8.5-2.3-6.7,1.9c2,4.9,5.9,9.1,9.7,12.7c4,3.8,8.6,6.8,14.1,7.5
			C2212,1076.5,2213.9,1069.8,2209.4,1069.2z M2175.6,1078.7c-7.6-1.2-13.8-6.2-16.1-13.6c-1.3-4.3-8.1-2.4-6.7,1.9
			c3,9.5,11.1,16.9,21,18.5C2178.2,1086.2,2180.1,1079.5,2175.6,1078.7z M2327.3,1084.5c-10.1,4.6-20.3,8.8-30.6,12.7
			c-4.2,1.6-2.4,8.3,1.9,6.7c10.9-4.1,21.7-8.6,32.3-13.4C2334.9,1088.7,2331.3,1082.7,2327.3,1084.5z"/>
		<path class="st16" d="M2349.4,1304.9c-0.1,0-0.3,0-0.4-0.1c-1.7-0.3-3.9,0.4-4.3,2.4c0,0,0,0,0,0c-4.4,4.9-19.9,9.9-24.4,11.6
			c-7.4,2.7-14.8,4.5-22.5,5.7c-16.8,2.5-33,0.6-48.9-5.3c-4.2-1.6-6,5.2-1.9,6.7c18.8,7,38.3,8.6,58,4.5
			c12.1-2.5,39.3-9.2,46.5-20.5C2352.7,1308.2,2351.6,1305.3,2349.4,1304.9z"/>
		<path class="st16" d="M2481.5,1725.6c-35.2,15-82.6,12.5-120.2,10.5c-20.1-1.1-40.1-3.3-59.9-6.7c-21-3.6-44.6-7-63.7-16.7
			c-4-2-7.5,4-3.5,6c18.9,9.6,41.5,13.2,62.2,16.9c21.5,3.8,43.2,6.3,64.9,7.5c39.2,2.1,86.9,4.2,123.7-11.5
			C2489.1,1729.9,2485.6,1723.9,2481.5,1725.6z"/>
		<path class="st10" d="M1831.4,1565.4c-0.3-0.4-0.5-0.8-0.7-1.3c-2.3-5.1,3.2-9.5,6.3-12.7c4-4.1,8.1-8.7,12.8-12.2
			c4.7-10.3,16.9-13.8,29-16.6c0.1,0,0.3,0,0.4,0c9.8-3.1,19.5-1.8,30.2,1c18.8,4.9,37.5,9.2,56.7,12c2.8,0.1,5.9,0.3,9.6,0.7
			c32.9,3.1,64.8,3.1,97.7,6.2c8.9,0.8,5.7,14.5-3.1,13.6c-4.9-0.5-9.7-0.9-14.6-1.4c5.1,1.4,5.9,6.8,3.7,10.4
			c1.4,0.5,2.7,1,4.1,1.5c1.5,0.6,2.4,1.7,3,2.9c0.5,0,1,0.1,1.4,0.1c8.9,0.6,9.7,25.5,0.8,24.2c-33.7-5-65-13.6-95.8-19.5
			c-5.8-1.1-10.5-1.6-14.2-2.4c-8,5.8-15.7,8.2-26.7,3.9c-8.4-3.3-15.6-9.4-23.6-13.3c-9.6-4.7-19.6-7.8-30-9.7
			c-3.7-0.7-7.4-0.4-11,0.6c-2.3,0.7-4.7,1.4-7.1,2.3l0,0c-2,6.1-4.1,12.8-8.6,16.9c-2.3,2.1-5.7,0.9-6.1-2.2
			c-0.2-1.6-0.1-3.1-0.2-4.7c-3.4,3.4-6.5,7.3-8.8,11.7c-1.3,2.3-4.6,2.5-6,0.3C1827.3,1572.7,1828.9,1569.1,1831.4,1565.4z"/>
		<path class="st17" d="M1760.1,1553.3h240.2c16.6,0,30.1,13.5,30.1,30.1l0,0H1730l0,0C1730,1566.8,1743.5,1553.3,1760.1,1553.3z"/>
		<path class="st17" d="M1794,1350.4L1794,1350.4l-109.8,6.3l35.1,226.5l112.9,0.9l22.1-3.6l-34.6-211.6
			C1817.8,1356.7,1806.2,1348.4,1794,1350.4z"/>
		<path class="st12" d="M2421,1500.7c-8-10.7-26.2-0.2-18.1,10.6c0.9,1.2-3.7,6.2-11.1,12.9c-1.2-1.9-3-3.5-5.1-4.2
			c2.2-5.9-1.7-12.9-7.3-14.4c0.3-0.3,0.7-0.6,1-1c8.7-8-2.7-23.1-12.7-16.5c-1.1,0.7-2.1,1.4-3.2,2.1c2-1.9,3.9-3.8,5.9-5.7
			c6.8-6.5,2.1-15-4.8-17c10.4-11.1,19.3-23.4,21.3-37.5c1-7.2-4.5-15.8-12.9-12.9c-23.9,8.2-45.7,19.5-66.2,32.8
			c-2-0.2-4.1,0.3-6.4,1.8c-4.9,3.3-9.7,6.7-14.5,10c-13.6,7.2-26.9,15-39.7,23.5c3.1-3.5,6.1-7.1,9.2-10.6
			c29.3-33.6,58.6-67.2,87.8-100.8c8.8-10.1-5.9-25-14.8-14.8c-30.7,35.3-61.5,70.6-92.2,105.8c-33.1,37.9-66.3,70.8-119.4,74.5
			c-21.6,1.5-43.4-1.1-64.5-5.6c-12.6-2.7-26.6-9.4-39.8-8.4c-23.7,1.9-33.4,25.1-39.5,44.8c-1.3,4.2,0.8,9.9,4.8,11.8
			c84.1,41.4,180.2,80.8,275,53.8c43-12.2,81.7-37.8,116-65.8C2383.1,1559.5,2437.6,1522.9,2421,1500.7z M2340.8,1464.8
			c-2.3,2.4-4.7,4.7-7.1,7c-3.3,1.3-6.6,2.8-9.8,4.3C2329.5,1472.2,2335.2,1468.5,2340.8,1464.8z"/>
		<path class="st16" d="M2417.9,1330.5c-15.3,1.8-29.9,5.7-43.6,11.4c-0.6-0.9-1.5-1.4-2.4-1.5c-9.9-10.7-21.7-18.8-35.2-24.3
			c-4.2-1.7-6,5.1-1.9,6.7c12.4,5,23.1,12.7,32.1,22.4c-12.7,6.2-24.6,14-35.5,23.8c-26.6,23.8-45.3,54.6-66.8,82.8
			c-25.6,33.6-55.9,62-98.6,70.6c-43.2,8.7-87.5-0.2-130.8-3.9c-4.5-0.4-4.5,6.6,0,7c1.1,0.1,2.2,0.2,3.3,0.3
			c-3.9,8.2-7.5,16.4-10.7,24.8c-2.1,5.4-4,10.9-5.7,16.4c-1.3,4.2-2.1,10.9-4.3,15.1c-0.3,0.2-0.6,0.5-0.9,0.9
			c-0.1,0.1-0.1,0.2-0.2,0.3c-0.8,1.2-0.6,3.3,0.5,4.2c0.1,0.1,0.2,0.2,0.3,0.3c1.8,1.6,4.1,1.2,5.5-0.7c4.8-6.5,5.8-18.8,8.5-26.5
			c4.1-11.7,8.9-23,14.3-34.1c36.4,3.6,73.1,9.4,109.7,4.6c34.6-4.5,64.1-19.9,88.5-44.5c25.7-25.9,44.1-57.6,67-85.7
			c27.7-34,62.4-58.3,106.9-63.5C2422.3,1337,2422.3,1330,2417.9,1330.5z"/>
		<path class="st16" d="M2424.3,1500.3c-8.2,16.9-16.5,34-27.4,49.4c-13.8,19.5-31.8,33.1-52.4,45c-36.3,20.9-75.2,36.5-116.8,42.1
			c-4.4,0.6-2.5,7.3,1.9,6.7c44.2-6,85.5-23.1,123.6-45.8c38-22.7,58.1-54.8,77.1-93.8C2432.3,1499.8,2426.3,1496.2,2424.3,1500.3z"
			/>
		<path class="st16" d="M2200.7,1382.3c-10,34.9-17.7,70.2-23.1,106.1c-0.7,4.4,6.1,6.3,6.7,1.9c5.4-35.9,13.1-71.2,23.1-106.1
			C2208.7,1379.9,2202,1378,2200.7,1382.3z"/>
		<path class="st18" d="M1763.7,1462.4c1.6,9.6-2,18.2-7.9,19.2c-6,1-12-6.1-13.6-15.7c-1.6-9.6,2-18.2,7.9-19.2
			C1756.1,1445.7,1762.2,1452.8,1763.7,1462.4z"/>
		<g>
			<path class="st12" d="M1143.6,2490.7l31.8-0.4l-84.1-543.7h30.5c0-28.5-23.1-51.5-51.5-51.5H922.7l-28.6-442.9
				c-0.6-8.5-7.9-14.9-16.3-14.3c-8.5,0.5-14.9,7.9-14.4,16.3l1.1,17.5h-40.7l-1.4-21.3c-0.6-8.5-7.9-14.9-16.3-14.3
				c-8.5,0.5-14.9,7.9-14.4,16.3l28.7,449.8c-15.2,9-25.4,25.5-25.4,44.4H831l-83.6,540.8l31.8,0.4l82.9-541.2h198.2L1143.6,2490.7z
				 M876.6,1660.7l15,234.4h-40.4l-15.1-234.4H876.6z"/>
			<path class="st6" d="M1137.5,1874.2c-111.6-59.1-240.5-59.6-352.6-1.4c-6.7,3.5-7,14.7,0,18.1c16.3,7.8,32.1,16.6,49.8,20.8
				c27.4,6.5,213.4,20.2,302.8-19.4C1144.7,1889.1,1143.9,1877.6,1137.5,1874.2z"/>
		</g>
		<g>
			<path class="st5" d="M1606.6,1295c0.2-12.7,0.2-25.3-0.6-38c-0.8-12.6,2-34.1-11.8-39.9c-11.8-5-45.7-1.9-65.1-0.9
				c-20,1-39.9-1.7-63.5,1.2c-4.8,0.6-13.7,1.4-13.7,7.1c0,11.3,0,14,1.6,13.7c14.6-2.8,49.3,4,64.6,3.5c20.9-0.7,45.4-4.1,65.5,2.3
				c3.6,20.5-2.2,43,2.6,63.2c1.9,7.7,8.4,15.6,16.4,8.1C1607.7,1310.4,1606.6,1301.3,1606.6,1295z"/>
			<path class="st10" d="M1560.1,1314.6c0,0.3,0,0.6,0,0.9c0,0,0,0,0,0c-1.8,1.5-3.6,2.7-5.5,3.9c-2.8,1.9-6,3.1-9.3,3.5
				c-9.5,1.1-18.9,1.2-28.5-0.3c-8-1.3-15.9-4.5-24-5.1c-10.7-0.8-16.7,3.4-22,10.6c-3.4,0.3-7.6,1.2-12.9,1.8
				c-28.2,3.2-92.1,3.5-122.5,8.3c-8,1.3,7.9,56.1,15.8,54.5c29.2-6.2,85.4-23,114.6-29.2c3.2-0.7,6-1.3,8.4-2
				c17.3-2.8,34.6-4.2,52.1-5c10-0.5,18.7-1.9,26.3-7.2c0.1-0.1,0.2,0,0.3-0.1c9.7-5.7,19.3-11.9,20.5-22.1c2.6-3.7,4.7-7.9,6.7-12
				C1573.5,1315,1566.8,1315,1560.1,1314.6z"/>
			<path class="st10" d="M1507.5,2422.3c-3.1-57.2-7.1-114.3-11.9-171.4c-0.6-7.3-10.5-9.9-15.5-5.5c-7,6.2-11.1,14.7-13.4,24.3
				c-1.3,5.5-4.4,10.2-7.6,14.8c-0.7,1-1.2,2.1-1.4,3.4c-0.7-4.6-1.3-9.1-2-13.7c-1.8-12.1-20.4-8.7-18.6,3.4
				c8.2,56.3,16.4,112.5,24.6,168.8c2.2,15.4,2,70.3,33.1,58.7c5.9-2.2,9.8-6.3,12.5-11.6c0.5,0,1,0,1.5-0.1c0,0,0.1,0,0.1,0
				c1.3,0.1,2.5,0.3,3.8,0.4c3.3,2.8,7.2,2,9.3-0.5c1.4-0.1,2.7-0.1,4.1-0.2c2-0.2,3.5-1.4,4.3-3.1c1.7,0.6,3.1,0.9,5.4,0.2
				c5.4-1.7,6.9-7.7,2.4-11.4c-7.4-6.1-17-9.8-22.5-17.8c-0.1-0.1-0.2-0.3-0.3-0.4c-2.9-4.3-4.4-9.4-5-14.6
				C1509.1,2436.8,1507.8,2428.4,1507.5,2422.3z"/>
			<path class="st18" d="M1585.6,2488.4c-16.2-3.7-48.4-4-57.5-22.8c-7.5,6.1-12.3,15.7-23.9,15.4c-16.2-0.4-31.3-19.7-47.5-13.5
				c-7.1,20-13,46,2.3,52.7c7.8,3.4,25.4,1.5,33.3,1.8c14.2,0.6,19.5-0.2,33.7-0.2c28.4,0.1,50.4-0.6,78.7-2.5
				c5.2-0.4,6.9-10.1,6.4-14.2C1609.8,2494,1597.5,2491.1,1585.6,2488.4z"/>
			<path class="st18" d="M1526.1,2521.9c28.4,0.1,50.4-0.6,78.7-2.5c4.1-0.3,6-6.4,6.4-11c-53.5,2.4-107.1,2.8-160.6,1.3
				c1.3,4.8,4,8.5,8.5,10.5c7.8,3.4,25.4,1.5,33.3,1.8C1506.6,2522.7,1511.9,2521.8,1526.1,2521.9z"/>
			<path class="st10" d="M1002.3,2371.1c37.2-43.5,73.8-87.6,109.7-132.3c4.6-5.7-0.8-14.5-7.5-14.7c-9.3-0.3-18.2,3-26.4,8.3
				c-4.7,3-10.2,4.4-15.7,5.5c-1.2,0.2-2.3,0.7-3.4,1.5c2.7-3.8,5.3-7.5,8-11.3c7.1-10-8.8-20.3-15.8-10.4
				c-32.9,46.4-65.8,92.7-98.7,139.1c-9,12.7-47.1,52.3-16.6,65.3c5.8,2.5,11.5,2.2,17,0.2c0.4,0.3,0.7,0.7,1.2,0.9
				c0,0,0.1,0.1,0.1,0.1c0.8,1,1.6,1.9,2.4,2.9c0.4,4.3,3.8,6.4,7.1,6.1c1,0.9,2,1.8,3.1,2.7c1.6,1.2,3.5,1.4,5.2,0.7
				c0.9,1.6,1.7,2.8,3.8,3.9c5.1,2.5,10.3-0.9,9.6-6.6c-1.1-9.5-5.6-18.8-4-28.4c0-0.1,0-0.3,0.1-0.4c0.9-5.1,3.3-9.9,6.4-14
				C993.5,2382.7,998.3,2375.7,1002.3,2371.1z"/>
			<path class="st18" d="M1013.2,2472.8c-9.2-13.9-32.3-36.3-25.9-56.2c-9.6-0.8-19.8,2.9-27.9-5.3c-11.4-11.5-9.1-35.9-25.1-42.5
				c-18.9,9.6-41.1,24.3-34.7,39.7c3.3,7.8,17.3,18.6,22.9,24.3c9.9,10.2,14.3,13.3,24.5,23.1c20.5,19.6,36.9,34.4,58.7,52.5
				c4,3.4,12-2.6,14.4-5.8C1026.8,2493.6,1020,2483,1013.2,2472.8z"/>
			<path class="st5" d="M947.1,2456c20.5,19.6,36.9,34.4,58.7,52.5c3.2,2.6,8.8-0.5,12.2-3.5c-40.4-35.2-79.4-71.9-117.1-109.9
				c-2.3,4.4-3,8.9-1.1,13.5c3.3,7.8,17.3,18.6,22.9,24.3C932.4,2443.1,936.8,2446.2,947.1,2456z"/>
			<path class="st10" d="M1361.8,896.4c-5.4-37-4.1-63.8-36.1-81.8c-18.3,14.8-60.8,5.8-84.5,9.3c-31,46-29.7,113.3-10.4,160.6
				c2.2,5.4,8.8,8.1,14.5,6.9c0,0,0,0,0,0.1c1.7,3.3,5.1,5.6,8.7,6.6c3.3,2.9,6.9,5,10.9,6.1c0.5,4.9-3-5.8,3.3-4.8
				c22.5,3.4,69.4,20.5,86.5,0.8c12.5-14.3,10-34.1,10.3-55.1c7.6-2.4,16-6.1,13.4-15.1C1375.6,920,1367.9,909.4,1361.8,896.4z"/>
			
				<rect x="1219.3" y="970" transform="matrix(0.9971 7.586055e-02 -7.586055e-02 0.9971 82.5249 -92.536)" class="st10" width="80" height="139.9"/>
			<path class="st4" d="M1349.1,903.6c0.4,4.6-1.3,8.5-3.9,8.7c-2.6,0.3-5.1-3.2-5.5-7.8c-0.4-4.6,1.3-8.5,3.9-8.7
				C1346.2,895.6,1348.7,899.1,1349.1,903.6z"/>
			<path class="st6" d="M1345.9,959.5c-3.3,0.6-3.6,4.6-0.8,6.1c5.5,2.9,13.4,3.7,19.9,3.4c0.3-5,0.1-9.1,0-13.8
				C1358.8,957,1352.3,958.4,1345.9,959.5z"/>
			<path class="st4" d="M1356.5,876.9c-12.1-0.6-23.6-0.4-33.3,9.4c-2,2-0.3,5.8,3.1,5.1c6.7-1.3,23.4-3.8,28.4-4.5
				c4.1-0.6,5.5-3,4.4-7.2C1358.7,878.3,1358.3,877,1356.5,876.9z"/>
			<path class="st19" d="M1211.4,849.2c-4.3,10.3-4.4,21.2-0.9,31.7c1.3,3.8,7,1.1,5.7-2.7c-3-8.9-2.5-18.2,1.1-26.9
				C1218.9,847.6,1212.9,845.5,1211.4,849.2z"/>
			<path class="st6" d="M1592.8,1271.7c-0.6-10.5,1.8-21.9-1.1-32c-0.7-2.4-3.1-4.6-5.8-5.1c-19.6-3.8-43.5,0-63.5,0.4
				c-9.8,0.2-19.6,0.4-29.3,0.6c-8.7,0.2-22.2-0.1-36.3,1.5c-3.5,0.4-3.6,1-3.8,2.3c-0.1,1.4-0.1,3.4-0.2,6.6
				c-0.2,9.3,0.5,23.9,0.9,33.3c0.5,11.1,1.1,22.2,1.9,33.2c0.6,9.2,16.3,9.5,16.6,0.7c3,4.5,7.2,7.2,13.4,6
				c2.4-0.5,4.5-1.7,6.4-3.3c3,3.8,9.2,4.2,12.7,1c3.5,5.7,12.5,5.3,15.3-1.2c0.9-2.1,1.6-4.2,2.4-6.3c0.4,0.9,0.6,1.8,1.1,2.7
				c2.1,4.4,9.7,4.6,13,1.5c1.6-1.5,3-3.3,4.3-5.3c0.1,0.6,0.3,1.3,0.4,1.9c1.6,6.5,11.4,6.7,15,1.9c3.7,1.5,8.2,0.7,10.4-3.3
				c3.4,3.2,9.3,3,12.3-0.8c-0.1,0.5-0.1,1.1-0.2,1.6c-1.2,9.4,15.4,9.3,16.6,0C1596.8,1296.9,1593.5,1284.4,1592.8,1271.7z"/>
			<rect x="1428.9" y="1304.5" class="st4" width="194.7" height="17.9"/>
			<path class="st5" d="M1593.5,1279.9c-46.6,0.4-93.2,0.7-139.9,0.9c0.2,4.2,0.5,8.4,0.7,12.6c46.9-0.2,93.8-0.5,140.6-0.9
				C1594.6,1288.3,1594,1284.1,1593.5,1279.9z M1593.1,1251c-46.8,0.4-93.6,0.7-140.4,0.9c0,4,0.1,8.3,0.3,12.6
				c46.6-0.2,93.2-0.5,139.8-0.9C1592.9,1259.5,1593.2,1255.2,1593.1,1251z"/>
			<path class="st4" d="M1464.3,1239.9c-1.4,2-2.8,4-4.3,5.9c-2.5,3.2,3,6.4,5.5,3.2c1.5-1.9,2.9-3.9,4.3-5.9
				C1472,1239.7,1466.6,1236.6,1464.3,1239.9z M1504.9,1241.7c-0.5-4-6.8-4-6.3,0c0.3,2.1,0.6,4.1,1.1,6.2c0.9,4,7,2.3,6.1-1.7
				C1505.4,1244.7,1505.1,1243.2,1504.9,1241.7z M1530.5,1239.5c-0.5,1.4-1.1,2.6-1.9,3.8c-2.3,3.4,3.2,6.5,5.5,3.2
				c1.1-1.6,1.9-3.4,2.5-5.3C1537.9,1237.3,1531.8,1235.7,1530.5,1239.5z M1569.4,1246.3c1.4,3.8,7.5,2.2,6.1-1.7
				c-0.8-2.1-1.5-4.2-2.3-6.4c-1.4-3.8-7.5-2.2-6.1,1.7C1567.9,1242.1,1568.6,1244.2,1569.4,1246.3z M1554.8,1268.7
				c-0.4,2-0.6,4-0.8,6c-0.4,4,6,4,6.3,0c0.1-1.4,0.3-2.9,0.6-4.3C1561.7,1266.4,1555.6,1264.7,1554.8,1268.7z M1581.7,1268.6
				c-2-0.3-3.9-0.3-5.9-0.1c-4,0.4-4,6.7,0,6.3c2-0.2,3.9-0.2,5.9,0.1C1585.7,1275.5,1585.7,1269.1,1581.7,1268.6z M1527.8,1267.3
				c-1.3,1.3-2.5,2.8-3.5,4.4c-2.1,3.5,3.4,6.7,5.5,3.2c0.7-1.2,1.5-2.2,2.5-3.1C1535.1,1268.9,1530.7,1264.4,1527.8,1267.3z
				 M1492.1,1267.8c-2.7-3.1-7.1,1.4-4.5,4.5c1.6,1.8,3.3,3.3,5.3,4.7c3.3,2.3,6.5-3.1,3.2-5.5
				C1494.6,1270.5,1493.3,1269.2,1492.1,1267.8z M1479.7,1271.1c-1.5-0.1-2.9,0-4.3,0.2c-4,0.5-4,6.8,0,6.3c1.5-0.2,2.9-0.2,4.3-0.2
				C1483.7,1277.6,1483.7,1271.3,1479.7,1271.1z M1476.7,1296.2c-0.8-0.3-1.6-0.8-2.3-1.2c-3.5-2-6.7,3.4-3.2,5.5
				c1.2,0.7,2.5,1.3,3.8,1.9C1478.8,1303.8,1480.4,1297.7,1476.7,1296.2z M1514.6,1296c-1.6-0.2-3.1-0.2-4.7-0.1
				c-4,0.3-4.1,6.6,0,6.3c1.6-0.1,3.1-0.1,4.7,0.1C1518.6,1302.8,1518.6,1296.5,1514.6,1296z M1544.3,1294.6c-4-0.6-5.7,5.4-1.7,6.1
				c1,0.2,1.7,0.3,2.4,1c3.1,2.6,7.6-1.8,4.5-4.5C1547.9,1295.9,1546.3,1295,1544.3,1294.6z M1570.2,1293.9c-1,1-2.1,2-3.1,3
				c-2.9,2.8,1.5,7.3,4.5,4.5c1-1,2.1-2,3.1-3C1577.6,1295.6,1573.1,1291.1,1570.2,1293.9z"/>
			<path class="st14" d="M1523.6,2349.6c-2.4-40.1-36.6-276.9-50.5-351.2c-14.3-76.4-141.5-475.4-141.5-475.6
				c-0.1-0.3-4.4-56.4-4.5-56.7c-1.8-5.7-165.9-7.4-187.6-1.7c-8.4,2.2-8.1,37-15.1,63.4c-24.6,91.7-25.7,157.1-12.1,240
				c12.8,77.6,31.6,156.7,12.8,233.4c-29.6,68.2-60.6,135.9-99.1,199.5c-11.4,18.9-23.5,37.5-36.3,55.5c-9.6,13.5-27.2,28.7-28.5,46
				c-2.1,27.6,49.6,22.1,66.7,40.8c3.5,3.8,4.1,27.9,8.4,24.7c55.8-40.4,92.4-71.4,136.3-125.2c35.9-44.1,67.2-85.1,91.7-133.4
				c1.1-2.1,2.2-4.3,3.3-6.4c0.7-1.4,1.5-2.8,2.2-4.3c3.1-6.6,6.1-13.2,8.8-20c0.4-0.9,0.8-1.8,1.2-2.7c0.2-0.4,0.2-0.7,0.3-1.1
				c8.4-21.3,15.1-43.3,21-65.7c2.4-8.9,4.6-17.8,6.8-26.7l70,226c9.3,36,18.6,72,27.9,108c5.2,20,17.6,60.3,23,80.3
				c2.6,9.8,9.5,19.9,29,16.8c18.1-2.9,51.3-22.4,55.6-25.1C1525.7,2380.2,1524.9,2373.1,1523.6,2349.6z"/>
			<path class="st5" d="M1318.8,1137.4c-34.3-63.3-6.3-76.2-19.7-78.5c-21.7-3.8-84.1-17.6-102.8-0.1c-3.4-0.7-7,0.4-10,4.1
				c-46.1,57.1-63.4,139.6-83.6,208.6c-10.3,35.2-22.6,71.3-23.6,108.3c-1.1,39.3,10.9,77.9,22.4,115c2,6.5,8.8,10.7,15.5,8.8
				c66.4-18.4,133.9-23.1,202.2-14.6c4.1,0.5,9-2.7,10.9-6.3c19.7-36.7,30.3-84.6,29-126.3c-0.4-13.6,9.6-61.3-1.3-119.7
				C1351.9,1204.9,1332.8,1163.3,1318.8,1137.4z"/>
			<path class="st4" d="M1351.9,832.2c-7.8-31.4-62.5-37.7-102.6-28.2c-18.5,4.3-45,11.7-64.5,42.5c-33.1,52.1-32.7,81.5-48.8,102.1
				c-12.6,16.2-26.4,28.8-27.9,50.5c-0.9,13.3,2,26.6-1.4,39.8c-3.2,12.2-10.3,23-17.8,32.9c-11.3,15.1-24.7,29.2-32.3,46.6
				c-12.1,27.6,2.1,57-9,84.9c-9.5,23.7-24.7,44.7-17.9,71.3c0.2,1,1.4,1.9,2.4,2c15.2,1.4,30.1,4.2,44.5,9.3
				c10.3,3.6,20.1,8.9,31,10.7c11.8,1.9,23.2-0.8,34.2-4.7c6.8-2,13.8-4.7,20.1-7.9c0.9-0.4,1.8-0.7,2.7-1.1
				c11.9-4.6,23.9-8.1,36.8-7.1c12.2,0.9,24.7,5.3,37.1,3.7c16.6-2.2,20-13.5,19.3-28.6c-1.1-27.1-12.1-53.7-7.1-81
				c4.1-22.1,16.4-42,12.8-65.1c-4.3-27.7-19.4-49.5-14.6-78.8c3.9-23.4,23.8-37.6,24.8-61.7c0.7-15.4-7.4-38.1,3.3-50.8
				c7.4-8.8,20.7-4.7,26.9-13.3c4.6-6.4,2.5-25.1,6-32.4c7-14.7,24.9-19.6,39.9-25.7c2.8-1.2,2.8-1.9,2.9-4.2
				C1352.7,836.2,1352.4,834.1,1351.9,832.2z"/>
			<path class="st10" d="M1311,910.1c-4.9-6.9-23.5-10.4-29.2-5.3c-22.3,20.4,12.3,56.9,20.6,54.9c5.3-1.3,9.3-5.4,8.7-11.2
				c-0.6-4.9-5.9-9.9-11.2-8.7c-4.7,1.1-7.7-8.4-6-12c3-6.7,11.1-4.7,16.1-8.9C1312.6,916.8,1313,913.1,1311,910.1z"/>
			<path class="st11" d="M1298.8,921.7c2.2-3.4-2.8-7.2-5-3.8c-2.3,3.4-2.3,7.4-1.2,11.2c0.9,3.2,3.5,8.5,7.1,9.7
				c2.1,0.7,4.8-0.8,4.3-3.3c0-0.1,0-0.1,0-0.2c-0.2-1.2-1-2-1.9-2.3c0,0,0,0,0.1,0c-1.5-0.5-2.9-3.8-3.3-5.2
				C1298.1,925.9,1297.7,923.4,1298.8,921.7z"/>
			<path class="st15" d="M1273.2,1917.1c-14.1-38.4-40-70-63.4-103.1c-25.3-35.8-48.5-73.1-65.7-113.6c-1.6-3.7-7-0.5-5.5,3.2
				c16.4,38.7,38.3,74.5,62.4,108.9c9.6,13.8,19.9,27.3,29.6,41.1c-0.2,0.3-0.3,0.6-0.4,1c-11.5,78.4-37.8,151.7-74.1,221.9
				c-36.1,69.8-73.6,139.5-116.6,205.3c-2.2,3.4,3.2,6.6,5.5,3.2c44.1-67.4,82.7-139,119.4-210.6c34.6-67.7,59.6-138.4,71.2-213.6
				c12.5,18.2,23.8,37.1,31.5,58C1268.5,1922.6,1274.6,1921,1273.2,1917.1z"/>
			<path class="st15" d="M1320.8,1511.2c-3.6,27.7-13.5,53.3-29.1,76.2c-0.4,0.2-0.7,0.6-1,1c-0.8,1.3-1.6,2.6-2.4,3.9
				c-2.2,3.5,3.1,6.4,5.5,3.2c18.3-25.2,29.4-53.4,33.3-84.3C1327.7,1507.2,1321.3,1507.2,1320.8,1511.2z"/>
			<path class="st15" d="M1318.2,1679.2c-10.1-29.2-20.5-58.4-34.5-85.9c-7.4-14.5-15.4-28.7-19.3-44.7c-4.1-17-4.2-34.6-4.4-51.9
				c0-4.1-6.4-4.1-6.3,0c0.3,24.8,1.1,49.2,10.9,72.3c11.2,26.5,25.4,51.2,35.5,78.3c20.6,55.1,37.8,111.4,53.3,168.1
				c30.7,112.8,52.9,227.7,72.1,343c10.8,65.1,20.7,130.4,30.5,195.7c0.6,4,6.7,2.3,6.1-1.7
				C1427.8,2125.5,1393.3,1896.8,1318.2,1679.2z"/>
			<path class="st15" d="M1528.8,2340c-0.2-2.1-3.3-3.3-5.5-3.1c-15.3,1.2-31.5,8.6-46.2,12.9c-19.3,5.7-38.6,11.4-57.9,17.1
				c-6.1,1.8-6.1,7.3-5.4,12.1c2.6,17.9,3.3,26.4,7.6,37c1.1,2.7,3.1,4.5,6.1,4.6c27.1,0.8,63.4-13.1,87.7-24
				c9.7-4.3,18.6-6.7,18.1-17.8C1532.8,2367.5,1530.9,2360.6,1528.8,2340z"/>
			<path class="st15" d="M1067.4,2353.5c1.7-1.2,1.2-4.5,0-6.3c-8.7-12.6-23.3-22.9-34.4-33.4c-14.7-13.8-29.3-27.6-44-41.5
				c-4.6-4.4-9.4-1.6-13.2,1.4c-14.1,11.3-21.1,16.1-28.1,25.2c-1.8,2.3-2.4,4.9-0.9,7.6c13,23.8,43.2,48.1,64.9,63.7
				c8.6,6.2,15.1,12.7,24.4,6.7C1045.6,2370.7,1050.6,2365.7,1067.4,2353.5z"/>
			<path class="st6" d="M1331.5,1521.2c-0.3-3.9-1.1-14.4-2-25.2c-67-6.1-134-0.9-200.6,9.4c-1.2,7.6-2.5,15.4-4.4,22.6
				c-0.3,1.3-0.6,2.5-1,3.7C1192.5,1520.5,1262.1,1514.2,1331.5,1521.2z"/>
			<path class="st14" d="M1184.2,1496.9c-0.2-6.8-12.9-6.9-12.6,0c0.7,22.5,0.7,44.9-0.1,67.4c-0.2,6.8,12.4,6.8,12.6,0
				C1184.9,1541.8,1184.9,1519.4,1184.2,1496.9z"/>
			<path class="st10" d="M1299.4,1503.1c-10-9.2-25.5-8.3-35.8-17.2c-15.9-13.7-89.2-104.6-104.9-118.5
				c-5.1-4.5-36.4,47.3-30.3,52.6c22.1,18.7,112.3,76.9,129.2,100.4c12,16.7,24.5,38.1,44.7,42.2c3,1.2,6.8,0.4,8.2-3.5
				C1321.9,1528.4,1324.4,1526,1299.4,1503.1z"/>
			<path class="st5" d="M1213.5,1370.2c-3.6-1.9-7.3-3.4-11.3-4.7c9.6-7.6,2.9-26.4-11-22.1c-26,8.2-50.2,19.9-72.5,35.7
				c-9.6,6.8-5.7,20.2,2.6,23.2c-7.9,7.5-14.6,16.4-19.7,27.1c-7,14.6,14.8,27.4,21.8,12.7c15.7-33,49.3-44.9,83.6-48.6
				C1218.6,1392.5,1225.6,1376.7,1213.5,1370.2z"/>
			<path class="st13" d="M1524.7,2481.5c-2.5,3.2,2,7.7,4.5,4.5c2.7-3.5,5.2-7,7.7-10.6c-1.8-1.2-3.4-2.6-4.8-4.1
				C1529.7,2474.7,1527.3,2478.2,1524.7,2481.5z M1544.5,2479.4l-5.8,9.6c-2.1,3.5,3.4,6.7,5.5,3.2c2.1-3.5,4.3-7.1,6.4-10.6
				C1548.5,2481,1546.5,2480.3,1544.5,2479.4z"/>
			<path class="st13" d="M974.8,2432.8c-3.9,1.1-2.9,7.4,1,6.2c4.2-1.2,8.3-2.7,12.4-4.2c-0.7-2-1.3-4.1-1.5-6.1
				C982.8,2430.2,978.8,2431.6,974.8,2432.8z M992.1,2442.7l-10.3,4.5c-3.7,1.6-1.2,7.4,2.6,5.8c3.8-1.6,7.6-3.3,11.4-4.9
				C994.5,2446.2,993.3,2444.5,992.1,2442.7z"/>
			<path class="st13" d="M1247.6,948.2c-7.8,22.1-23.3,41.4-28.5,64.4c-5.5,24.1,3.1,47.5,4.7,71.4c1.8,27.3-9.4,52.4-13,79.1
				c-3.4,25.3-0.9,50.9,1.8,76.1c0.4,4,6.7,4,6.3,0c-2.8-26.6-5.6-53.6-1.2-80.1c3.9-23.2,13.1-45.5,12.7-69.3
				c-0.4-26.2-11.4-51.8-4.5-77.9c5.8-22,20.3-40.6,27.9-62C1255,946,1248.9,944.3,1247.6,948.2z M1179.1,1149
				c-18,36-8.2,75.6-9.9,114c-0.2,4.1,6.1,4.1,6.3,0c1.6-37.1-8.3-76.2,9-110.9C1186.4,1148.6,1180.9,1145.4,1179.1,1149z
				 M1131.8,1137.5c-8.7,14.1-12.2,31.2-16.3,47.1c-1,3.9,5.1,5.6,6.1,1.7c3.9-15.3,7.3-32,15.7-45.6
				C1139.4,1137.2,1133.9,1134.1,1131.8,1137.5z M1222.4,849.2c3.2-2.4,0-7.9-3.2-5.5c-24.6,18.8-29.2,47.9-39.1,75.4
				c-10.9,30.4-39,51.6-43.2,84.5c-0.5,4,5.8,4,6.3,0c3.8-29.6,29-48.3,40-74.8C1194.6,901.2,1197,868.5,1222.4,849.2z
				 M1132.2,1035.3c-2.9,14.8-9.7,27.8-20.5,38.3c-2.9,2.9,1.6,7.3,4.5,4.5c11.5-11.3,19.1-25.3,22.1-41.1
				C1139.1,1033,1133,1031.3,1132.2,1035.3z M1235.9,871.8c3.8-9.1,8-18.8,16.3-24.7c3.3-2.3,0.1-7.8-3.2-5.5
				c-9.9,7-14.7,17.6-19.2,28.4C1228.2,873.9,1234.3,875.5,1235.9,871.8z M1265.4,845.7c-6.6,6.9-9.9,15.7-13,24.5
				c-1.3,3.9,4.8,5.5,6.1,1.7c2.7-7.8,5.5-15.7,11.3-21.7C1272.7,847.3,1268.3,842.8,1265.4,845.7z M1104.3,1153.7
				c0.6-4-5.4-5.7-6.1-1.7c-3.6,22.5-7.9,43.9-19.6,63.8c-10,17.1-14.3,33.9-17.2,53.5c-0.6,4,5.5,5.7,6.1,1.7
				c1.6-10.6,3.1-21.4,6.5-31.6c3.6-10.7,10.2-19.5,15.2-29.5C1098,1192.3,1101.2,1172.9,1104.3,1153.7z M1112,1199.5
				c-4.8,12.4-11.4,24.1-16,36.5c-4.5,12.1-6.3,24.9-8.2,37.6c-0.6,4,5.5,5.7,6.1,1.7c1.9-13.5,4-26.8,9-39.5
				c4.7-11.7,10.6-22.8,15.2-34.6C1119.5,1197.4,1113.4,1195.8,1112,1199.5z"/>
			<path class="st17" d="M1175.9,1332.9c-14.4,0-28.1,3.5-40.8,10.2c-3.6,1.9-0.4,7.4,3.2,5.5c11.8-6.2,24.3-9.3,37.7-9.4
				C1180,1339.2,1180,1332.9,1175.9,1332.9z M1188.6,1382.3c-1.7-11.1-3-22.3-3.8-33.6c-0.3-4-6.6-4.1-6.3,0
				c0.9,12.5,2.4,24.9,4.3,37.3c0.5,3.5,6.6,2.7,6.2-0.8c-0.1-0.8-0.2-1.7-0.3-2.5C1188.7,1382.5,1188.7,1382.4,1188.6,1382.3z
				 M1198.7,1286.1c-9,10.2-16.3,21.4-21.9,33.7c-1.7,3.7,3.8,6.9,5.5,3.2c5.1-11.3,11.7-21.7,19.8-31.1c0.7-0.3,1.2-0.9,1.6-1.7
				c0.1-0.3,0.3-0.7,0.4-1C1205.1,1286.2,1200.7,1283.8,1198.7,1286.1z M1114.4,1413.1c-18.8-34.5-18.1-69.6-5.1-106.7
				c1.3-3.8-4.8-5.5-6.1-1.7c-14,40.1-13.9,78.2,7.8,115.3c1.5,2.6,6.1,1.6,5.9-1.6c0-0.8-0.1-1.6-0.1-2.4
				C1116.6,1414.4,1115.6,1413.5,1114.4,1413.1z"/>
		</g>
	</g>
	<path class="st20" d="M424.2,1690.8c0-26.4-19.4-48.2-44.8-52.1c0,0-198.9-1.3-258.4,2.7c-18,1.2-31.4,30-31.4,49.4h36.8
		l-85.7,553.8l32.6,0.4l84.9-554.2h202.9l85.3,557.2l32.6-0.4l-86.1-556.8H424.2z"/>
	<g class="st2">
		<path class="st21" d="M-211.9,1111c20.3,18.7,31.3-5.4,50,2.6c1.4,0.6,10.5,8.4,9.6,8.6c11.2-2.1-8.5-26.7-10.6-29.1
			c-12-13.6-43.5-35-20-55.2c18.9-16.3,41.6,2.7,53.5,17.2c20.3,24.5,52.6,32.7,63.3,64.6c7.6,22.7,13.6,40.7,33.7,56
			c17.6,13.4,38.3,21.8,56.7,33.8c14.5,9.5,26.2,23.9,41.1,32.5c36.7,21.1-4.7-18.8-10.8-24.3c-26.1-23.4-27.6-42.8-28.5-76.6
			c-0.7-29.7-19.9-66.1-2.4-87.1c3.1-3.7,7.8-5.4,13.1-4.6c24.5,3.7,36.3,44.8,39.8,76c3,26.7,11.3,40.9,34,54.4
			c14.7,8.7,26.3,16.9,33.6,32.8c9.8,21.4,8.4,43.4,24.2,62.6c13.3,16,28.6,30,41.2,46.7c26.1,34.5,45,73,57.9,114.3
			c4,12.9-14.3,18-20.8,8.2c-1.7,4.8-6.3,8.3-11.1,8.1c10.3,8.7,20.4,17.6,30.3,26.8c10.8,10-6.2,25.3-16.9,15.4
			c-44.7-41.5-94.1-77.7-147.5-107.1c-24-13.2-51.7-22.8-73.2-40.1c-21.3-17.1-34.9-41.3-57.1-57.7c-19.5-14.4-42.3-22.1-63-34.2
			c-21.1-12.3-30.6-27.7-41.9-48.6c-16.7-31-42.7-34.6-71.8-48.3c-17.5-8.3-27.8-20.6-26.4-40.4
			C-231.1,1107.6-219.1,1104.4-211.9,1111z"/>
		<path class="st21" d="M202.7,1401.3c30.9-36.3,65.4-68.7,114.4-75.7c46.6-6.7,91.1,9.8,124.5,42.3c10.6,10.3-5.6,26.4-16.2,16.2
			c-6.3-6.1-13-11.5-20.1-16.2c4,7.8-2.5,16.9-10.9,16.4c-1.5,1.6-3.4,2.8-5.5,3.4c8.8,4.1,6.5,17.1-1.8,20.6
			c11,4.2,10.4,22.5-3.1,22c5.2,6.8,2.8,18.6-8.3,18.3c-24.6-0.7-49.3-1.2-73.9-1.4c-4.1,0-8.5-0.2-12.9-0.4
			c-22.6,1.3-45.2,2.7-67.8,4c-11.3,0.7-14-12.8-7.6-19.5c-3.9-2.8-6.8-6.3-7.8-10.8c-0.1-0.4-0.1-0.8-0.2-1.2
			C200.3,1415.6,197.3,1407.6,202.7,1401.3z"/>
		<path class="st5" d="M387.9,1625c-8.2,6.4-17.4,11-26.7,15.2H176.1c-9.5-4.3-18.8-8.9-27.1-15.4c-13.3-10.4-23.8-23.8-30.7-39.2
			c-18.5-41.4-14.9-96.6-16-141c-0.2-7.9,6.3-11.5,12.4-10.9h308.3v0.1c5.8-0.1,11.6,3.5,11.4,11c-1,44.4,2.6,99.6-16,141
			C411.6,1601.2,401.2,1614.5,387.9,1625z"/>
		<path class="st14" d="M130.7,1641.9h271.7c17,0,30.7-13.8,30.7-30.7l0,0H100l0,0C100,1628.2,113.7,1641.9,130.7,1641.9z"/>
		<path class="st21" d="M209.8,1384.3c0.1-0.2,0.2-0.4,0.3-0.7c0-0.1-0.1-0.2-0.1-0.3c-4.7-31.5,14.8-62.3,34.2-86.1
			c10.8-13.2,24.2-22.6,36.9-33.8c20.3-18,20.3-35.2,26.7-59.8c9.7-37.5,37.9-44.8,61.7-70.3c22.7-24.3,32.2-53.7,69.4-57
			c4.4-0.4,10.4,3.8,11,8.4c4.2,28.9-11.6,45.2-32.6,62.8c-13.9,11.6-28,23.4-40,36.9c-12.3,13.9-14.2,29.5-18,45.5
			c6.1-3.9,12.3-7.5,19-10.4c23.7-10.4,48.9-5.2,73.8-9.6c15.1-2.7,31.2-4.6,44.3,5.4c8.5,6.5,16.7,18.9,8.8,28.7
			c-9.6,11.9-35.1,3.1-46.9,4.3c-27.2,2.8-64.8,13.6-74.8,16.2c-34.9,9.2-57.2,18.7-83.4,44.6c-20.7,20.5-40,42.4-58.9,64.6
			c-0.2,0.2-0.4,0.3-0.5,0.5c-4,7-7.7,14.1-11.1,21.5C223.4,1409.1,203.7,1397.5,209.8,1384.3z"/>
		<path class="st22" d="M307.6,1269.6c6.3-14.7,18.3-24.8,26.7-38.2c9.3-14.8,11-32.9,20-47.9c8.9-14.7,21.6-27.5,32.8-40.4
			c12.6-14.5,25.5-28.8,38.6-42.9c2.5-2.7,6.6,1.3,4.1,4c-12.5,13.4-24.8,27-36.9,40.9c-12.4,14.2-27.3,28.8-36.2,45.6
			c-7.4,14-9.1,30-17.6,43.5c-8.3,13.3-20.4,23.5-26.7,38.2C311.1,1275.8,306.1,1273,307.6,1269.6z"/>
		<path class="st22" d="M207.7,1420.8c6.9-28.5,14.3-57.4,28.7-83.2c14.6-26,37.2-44.8,61.4-61.5c26-18,59.5-24.4,89.4-33.5
			c33.4-10.1,67.2-18.9,102.3-15.7c3.6,0.3,3.7,6,0,5.7c-32.8-3-64.5,4.6-95.7,14c-29.2,8.8-63.4,15-89.1,31.8
			c-25,16.2-48.6,35.9-63.3,62.2c-14.2,25.3-21.3,53.8-28.1,81.8C212.3,1425.9,206.8,1424.4,207.7,1420.8z"/>
		<path class="st22" d="M-202.4,1127.3c19.2,10.4,42.1,10.8,61,21.8c16.6,9.7,25.5,26.6,36.1,41.9c25,35.8,66.9,39.8,103,57.6
			c-12.3-23.5-35.9-35.6-56.1-51.7c-15.3-12.1-27.5-27.4-35.2-45.4c-4.2-9.8-5.9-20.7-10.6-30.3c-4.8-9.8-12.9-17.2-21.2-24.1
			c-16.6-13.9-31.6-26.4-42.7-45.4c-1.9-3.2,3.1-6.1,4.9-2.9c12.6,21.5,30.4,33.3,48.1,49.7c14.6,13.5,18.1,28.5,24.9,46.5
			c9.9,26,29,43.3,51.2,59c17.4,12.3,34.1,24.8,43.3,44.6c0.6,1.2,0.2,2.4-0.4,3.2c3.1,1.7,6.2,3.5,9.1,5.5
			c19,12.8,32.4,30,46.9,47.4c14.8,17.7,32.7,32.1,51.6,45.1c20.7,14.2,42.3,27.3,62,42.7c1.1-19.2-15.1-32.9-22-49.7
			c-4.7-11.5-6.1-24-7-36.3c-1.3-17.4-1.4-35.6-8.9-51.8c-6.1-13.1-16.1-23.8-26.5-33.5c-18.6-17.5-38.6-33.1-50.3-56.4
			c-12.8-25.5-16.4-54.3-19.8-82.3c-0.4-3.6,5.3-3.6,5.7,0c4,32.7,8.4,67.8,28.5,95.1c16.1,21.9,40.1,36.2,56.8,57.5
			c17.9,22.8,18,48.6,20.6,76.1c1.8,19.8,8.2,34.2,18.7,50.8c6.9,10.9,11.3,21.6,9.5,34.6c11.6,9.4,22.4,19.7,31.8,31.7
			c2.2,2.9-1.8,6.9-4,4c-27.6-35.2-67.4-55.9-103.3-81.4c-16.7-11.8-32.6-24.8-45.9-40.4c-16-18.7-29.9-37.5-51.2-50.9
			c-34.4-21.7-81.1-22.7-108.6-55.3c-14.1-16.8-22.4-38.9-42-50.5c-18.7-11.1-41.8-11.4-61-21.8
			C-208.5,1130.5-205.6,1125.6-202.4,1127.3z"/>
		<path class="st4" d="M102.7,1476.2c0-2.1,0-4.3,0-6.4c11.3,5.6,23,12,35.1,14.4c16,3.2,27.4-4.8,40.2-12.7
			c17.6-10.8,32.6-12.7,52.1-4.7c14.2,5.9,27,14.5,42.8,15c16.2,0.5,29.7-6.4,43.9-13.2c19.1-9.2,36.1-6.1,54,4.5
			c3.2,1.9,0.3,6.8-2.9,4.9c-15.9-9.4-31.1-12.7-48.2-4.5c-10.4,5-20.1,10.2-31.5,12.5c-25.3,5.1-42.1-7.7-64.7-15.7
			c-29.6-10.5-42.5,13-68.1,19.4C137.4,1494.1,119,1484.4,102.7,1476.2z"/>
		<path class="st4" d="M378.8,1515.9c0-2.1,0-4.3,0-6.4c-11.3,5.6-23,12-35.1,14.4c-16,3.2-27.4-4.8-40.2-12.7
			c-17.6-10.8-32.6-12.7-52.1-4.7c-14.2,5.9-27,14.5-42.8,15c-16.2,0.5-29.7-6.4-43.9-13.2c-19.1-9.2-36.1-6.1-54,4.5
			c-0.6,0.4-7.2,4-7.2,4l0.4,5.7c0,0,9-4.4,9.6-4.8c15.9-9.4,31.1-12.7,48.2-4.5c10.4,5,20.1,10.2,31.5,12.5
			c25.3,5.1,42.1-7.7,64.7-15.7c29.6-10.5,42.5,13,68.1,19.4C344.1,1533.8,362.5,1524.1,378.8,1515.9z"/>
		<path class="st21" d="M343.8,1324.5c33.8,1.4,65.5,11.8,92.3,32.8c10.6,8.3,19.3,18,27.7,28.5c17.9,22.2,32.3,33.4,61.4,37.4
			c27.4,3.8,58.8,5.9,76.2,30.9c12.3,17.6,7.3,36.9,24.6,53.2c9.5,8.9,20.2,14.2,23.1,28.3c4.4,21.6-16.4,36.8-36.5,32.5
			c-30-6.4-37.4-41.8-53.8-62.1c-21.5-26.6-71-13.8-100.3-34c-6.2-4.2-11.3-9.6-16-15.6c0,0-9-15.7-10.3,6c-0.3,5.5,4,13.1,6.9,17.5
			c5.8,8.9,14.4,16,22.5,22.7c14.5,12,30.1,22.5,40.9,38.2c7.6,11.1,11.8,23.1,12.5,36.5c0.6,11.8-1.9,22,1,33.7
			c3.4,13.3,11,21.7,20.2,31.5c21.6,23,58.8,48.9,67.3,80.8c3.6,13.5,0.1,25.9-3,39.1c-5.8,24.1,7.3,36.3,9.9,58.2
			c2.1,18.5-10.8,38.3-31.3,33c-26.1-6.7-34.3-43.2-39.4-65.3c-4-17.3-7-35.9-18.2-50.3c-11.5-14.7-30-22.3-42.9-35.9
			c-26.8-28.4-24.6-62.8-39.1-96.4c-0.6-1.3-1.3-2.6-1.9-3.9c-1.2,0.9-2.3,1.7-3.5,2.6c-3.4,6.5-0.5,19.4,0.8,26.1
			c2.3,11.6,6.4,22.7,8.2,34.4c3.6,22.6-3.1,34.1-12,53.2c-6.2,13.2,8.3,86.4-34.4,66.3c-39.5-18.6-11.5-78.9-10.1-108.2
			c1.3-26.3-13.1-50.4-11.4-76.7c1.1-17.1,7.6-33,11.6-49.4c-10.8-9.4-20.6-19.6-27.1-32.9c-16.6-34.2-14.2-73.8-11.1-110.6
			c0.9-10.2,12.4-13.3,18.8-9.1c2.3-12.8,5.6-25.5,10-38.1c0.8-2.4,2.3-4.3,4.2-5.6c-12-3.8-24.7-6-37.6-6.5
			C329.2,1346.8,329.1,1323.9,343.8,1324.5z"/>
		<path class="st22" d="M239.3,1433.7c-2.5,0-5,0.1-7.5,0.1c0,0,0,0,0-0.1c27.7-31.4,61.7-69,105-76.7c37.1-6.6,71.7,11.2,98.7,35.3
			c15.1,13.5,27.6,29.8,42.9,43c20,17.3,41.8,19.9,66.7,24.5c16.1,2.9,32.2,8.3,42.8,21.5c11.8,14.8,14.4,34.9,29.8,47.2
			c2.9,2.3-1.2,6.3-4,4c-12.1-9.6-16.7-23.7-23.6-37c-10.8-20.6-29.4-27.4-51.2-30.9c-17.4-2.8-34.4-4.9-49.8-14.2
			c-14.9-9-26.7-22.3-38.5-34.9c-20.7-22.1-45.9-43.7-75.4-51.3c-4.2,25.2-0.9,51.1,10.7,74.1c10.2,20.2,26.5,36.7,40.7,54.1
			c25.7,31.7,45.4,64,52.6,104.6c4.2,23.7,8.7,45.6,25.2,64.2c12.5,14.2,28.1,25.2,40.5,39.5c26.4,30.4,33.3,71,39.2,109.5
			c0.6,3.6-5,5.1-5.5,1.5c-7.2-46.8-17.1-89.1-53.1-122.4c-13.9-12.8-29-25.1-38.1-42c-9.7-17.9-11.4-38.5-15.4-58.2
			c-5.2-25.6-16.9-47.5-31.1-67.9c-10.2,19.8-20.5,39.7-28.1,60.7c-3.6,10-6.9,20.2-6.4,31c0.5,10,4.3,19.7,7.5,29.1
			c5.2,15.5,8.3,29.4,3.4,45.4c-7.4,24.1-13.9,44.2-9.9,70c0.6,3.6-4.9,5.1-5.5,1.5c-3.4-22-1.1-42.5,6.4-63.5
			c4.2-11.7,7.5-22.4,5.1-35c-2-10.2-6.2-19.7-9.1-29.6c-11.5-39.6,15.3-80.5,32.9-114.5c0.1-0.1,0.2-0.2,0.2-0.3
			c-11.4-15.6-24.1-30.5-36.4-45.7c-25.3-31.2-37.7-67.2-31.1-107.3c-7.4-1.4-15-1.9-22.9-1.4c-45.8,3.3-79,40.1-107.4,72.3
			C239.4,1433.7,239.4,1433.7,239.3,1433.7z"/>
		<path class="st4" d="M209.5,1480.7c14.7,0,14.7,22.9,0,22.9C194.8,1503.6,194.8,1480.7,209.5,1480.7z"/>
		<path class="st4" d="M337.7,1481.4c14.7,0,14.7,22.9,0,22.9C323,1504.3,323,1481.4,337.7,1481.4z"/>
		<path class="st4" d="M103.2,1503.2c-0.3-7.5-0.4-15-0.5-22.4C114.5,1482.8,114.7,1500.9,103.2,1503.2z"/>
		<path class="st4" d="M276.6,1447.2c14.7,0,14.7,22.9,0,22.9C261.9,1470,261.9,1447.2,276.6,1447.2z"/>
		<path class="st4" d="M146.3,1447.9c6.2,0.3,11.4,5,11.4,11.4v0.4c0,6-5.3,11.7-11.4,11.4c-6.2-0.3-11.4-5-11.4-11.4v-0.4
			C134.8,1453.3,140.1,1447.6,146.3,1447.9z"/>
		<path class="st4" d="M273.8,1521.1c14.7,0,14.7,22.9,0,22.9C259.1,1543.9,259,1521.1,273.8,1521.1z"/>
		<path class="st4" d="M143.4,1521.8c6.2,0.3,11.4,5,11.4,11.4v0.4c0,6-5.3,11.7-11.4,11.4c-6.2-0.3-11.4-5-11.4-11.4v-0.4
			C132,1527.3,137.2,1521.5,143.4,1521.8z"/>
	</g>
</g>
</svg>
